<svg width="96" height="96" viewBox="0 0 96 96" fill="none" xmlns="http://www.w3.org/2000/svg">
<g clip-path="url(#clip0_10279_55209)">
<path d="M40.3737 80.0001H70.3737C71.4092 80.0001 72.2487 79.1606 72.2487 78.1251V32.8744C72.2487 29.7731 69.7256 27.2501 66.6245 27.2501C65.9671 27.2501 65.3356 27.3635 64.7487 27.5715V27.2494C64.7487 24.1481 62.225 21.6251 59.123 21.6251C58.466 21.6251 57.8354 21.7395 57.2487 21.9475V21.6245C57.2487 18.5231 54.725 16.0001 51.623 16.0001C48.5217 16.0001 45.9987 18.5231 45.9987 21.6244V21.9477C45.4116 21.7396 44.7805 21.6251 44.123 21.6251C41.0217 21.6251 38.4987 24.1481 38.4987 27.2494V45.9942C38.4987 47.724 36.358 48.5309 35.2159 47.2327C35.2075 47.2231 33.5817 45.4499 33.5817 45.4499C31.5274 43.1316 27.9872 42.9085 25.6576 44.9581C23.3296 47.0066 23.102 50.5674 25.1502 52.8956C25.1592 52.906 37.1094 65.9022 37.1094 65.9022C38.0055 66.9276 38.4986 68.2412 38.4986 69.6035V78.1251C38.4987 79.1606 39.3381 80.0001 40.3737 80.0001ZM27.9545 50.4057C27.2841 49.6297 27.3634 48.4525 28.1347 47.7735C28.9157 47.0864 30.0984 47.1676 30.7801 47.9426C30.7885 47.9522 32.4139 49.7251 32.4139 49.7251C35.8389 53.5912 42.2486 51.1734 42.2486 45.9942V27.2494C42.2486 26.2159 43.0895 25.3751 44.1229 25.3751C45.1571 25.3751 45.9986 26.216 45.9986 27.2494V48.0001C45.9986 49.0356 46.8381 49.8751 47.8736 49.8751C48.9091 49.8751 49.7486 49.0356 49.7486 48.0001C49.7486 47.7526 49.7486 22.204 49.7486 21.6244C49.7486 20.5909 50.5895 19.7501 51.6229 19.7501C52.6571 19.7501 53.4986 20.591 53.4986 21.6244V48.0001C53.4986 49.0356 54.3381 49.8751 55.3736 49.8751C56.4091 49.8751 57.2486 49.0356 57.2486 48.0001C57.2486 46.9459 57.2486 28.0851 57.2486 27.2494C57.2486 26.2159 58.0895 25.3751 59.1229 25.3751C60.1571 25.3751 60.9986 26.216 60.9986 27.2494V48.0001C60.9986 49.0356 61.8381 49.8751 62.8736 49.8751C63.9091 49.8751 64.7486 49.0356 64.7486 48.0001V32.8744C64.7486 31.8409 65.59 31.0001 66.6244 31.0001C67.6579 31.0001 68.4986 31.841 68.4986 32.8744V76.2501H42.2486V69.6035C42.2486 67.3226 41.4189 65.1234 39.9124 63.411C39.9034 63.4006 27.9545 50.4057 27.9545 50.4057Z" fill="white"/>
</g>
<defs>
<clipPath id="clip0_10279_55209">
<rect width="64" height="64" fill="white" transform="translate(16 16.0001)"/>
</clipPath>
</defs>
</svg>
