<svg width="24" height="24" viewBox="0 0 24 24" fill="none" xmlns="http://www.w3.org/2000/svg">
<g clip-path="url(#clip0_11172_78874)">
<path d="M2.02133 12.875C2.21415 15.1548 3.18063 17.3002 4.76042 18.9552C6.34022 20.6102 8.43836 21.6754 10.7068 21.9739C12.9752 22.2725 15.2775 21.7865 17.2317 20.5967C19.1859 19.4069 20.6746 17.5846 21.4508 15.4324C22.227 13.2801 22.244 10.9271 21.499 8.76382C20.7541 6.60054 19.2919 4.75698 17.355 3.539C15.4182 2.32102 13.1232 1.80183 10.8507 2.06757C8.57821 2.33331 6.46489 3.36801 4.86133 4.99999H7.98333C8.24854 4.99999 8.5029 5.10535 8.69043 5.29289C8.87797 5.48042 8.98333 5.73478 8.98333 5.99999C8.98333 6.26521 8.87797 6.51956 8.69043 6.7071C8.5029 6.89464 8.24854 6.99999 7.98333 6.99999H3.84033C3.3479 6.99973 2.87572 6.804 2.52752 6.4558C2.17932 6.1076 1.98359 5.63542 1.98333 5.14299V0.999992C1.98333 0.734776 2.08868 0.480422 2.27622 0.292886C2.46375 0.105349 2.71811 -7.62939e-06 2.98333 -7.62939e-06V-7.62939e-06C3.24854 -7.62939e-06 3.5029 0.105349 3.69043 0.292886C3.87797 0.480422 3.98333 0.734776 3.98333 0.999992V3.07799C5.99465 1.28072 8.55344 0.214476 11.2459 0.0517037C13.9383 -0.111069 16.6069 0.639149 18.8201 2.18102C21.0333 3.7229 22.6616 5.96627 23.4418 8.54831C24.222 11.1303 24.1084 13.9001 23.1193 16.4095C22.1302 18.919 20.3236 21.0214 17.9915 22.3768C15.6595 23.7322 12.9384 24.2613 10.2684 23.8786C7.59832 23.4958 5.13547 22.2236 3.27812 20.2676C1.42078 18.3116 0.277544 15.7862 0.0333252 13.1C0.0204086 12.9607 0.0366421 12.8203 0.0809898 12.6877C0.125338 12.555 0.196827 12.4331 0.290903 12.3296C0.384979 12.2261 0.49958 12.1434 0.627403 12.0866C0.755226 12.0299 0.893471 12.0004 1.03333 12C1.27728 11.9971 1.51359 12.085 1.69623 12.2468C1.87887 12.4085 1.99476 12.6325 2.02133 12.875Z" fill="white"/>
</g>
<defs>
<clipPath id="clip0_11172_78874">
<rect width="24" height="24" fill="white"/>
</clipPath>
</defs>
</svg>
