<svg width="64" height="65" viewBox="0 0 64 65" fill="none" xmlns="http://www.w3.org/2000/svg">
<g clip-path="url(#clip0_10279_55210)">
<path d="M24.3737 64.5001H54.3737C55.4092 64.5001 56.2487 63.6606 56.2487 62.6251V17.3744C56.2487 14.2731 53.7256 11.7501 50.6245 11.7501C49.9671 11.7501 49.3356 11.8635 48.7487 12.0715V11.7494C48.7487 8.64812 46.225 6.12512 43.123 6.12512C42.466 6.12512 41.8354 6.2395 41.2487 6.4475V6.1245C41.2487 3.02312 38.725 0.500122 35.623 0.500122C32.5217 0.500122 29.9987 3.02312 29.9987 6.12437V6.44775C29.4116 6.23962 28.7805 6.12512 28.123 6.12512C25.0217 6.12512 22.4987 8.64812 22.4987 11.7494V30.4942C22.4987 32.224 20.358 33.0309 19.2159 31.7327C19.2075 31.7231 17.5817 29.9499 17.5817 29.9499C15.5274 27.6316 11.9872 27.4085 9.65762 29.4581C7.32962 31.5066 7.102 35.0674 9.15025 37.3956C9.15925 37.406 21.1094 50.4022 21.1094 50.4022C22.0055 51.4276 22.4986 52.7412 22.4986 54.1035V62.6251C22.4987 63.6606 23.3381 64.5001 24.3737 64.5001ZM11.9545 34.9057C11.2841 34.1297 11.3634 32.9525 12.1347 32.2735C12.9157 31.5864 14.0984 31.6676 14.7801 32.4426C14.7885 32.4522 16.4139 34.2251 16.4139 34.2251C19.8389 38.0912 26.2486 35.6734 26.2486 30.4942V11.7494C26.2486 10.7159 27.0895 9.87512 28.1229 9.87512C29.1571 9.87512 29.9986 10.716 29.9986 11.7494V32.5001C29.9986 33.5356 30.8381 34.3751 31.8736 34.3751C32.9091 34.3751 33.7486 33.5356 33.7486 32.5001C33.7486 32.2526 33.7486 6.704 33.7486 6.12437C33.7486 5.09087 34.5895 4.25012 35.6229 4.25012C36.6571 4.25012 37.4986 5.091 37.4986 6.12437V32.5001C37.4986 33.5356 38.3381 34.3751 39.3736 34.3751C40.4091 34.3751 41.2486 33.5356 41.2486 32.5001C41.2486 31.4459 41.2486 12.5851 41.2486 11.7494C41.2486 10.7159 42.0895 9.87512 43.1229 9.87512C44.1571 9.87512 44.9986 10.716 44.9986 11.7494V32.5001C44.9986 33.5356 45.8381 34.3751 46.8736 34.3751C47.9091 34.3751 48.7486 33.5356 48.7486 32.5001V17.3744C48.7486 16.3409 49.59 15.5001 50.6244 15.5001C51.6579 15.5001 52.4986 16.341 52.4986 17.3744V60.7501H26.2486V54.1035C26.2486 51.8226 25.4189 49.6234 23.9124 47.911C23.9034 47.9006 11.9545 34.9057 11.9545 34.9057Z" fill="white"/>
</g>
<defs>
<clipPath id="clip0_10279_55210">
<rect width="64" height="64" fill="white" transform="translate(0 0.500122)"/>
</clipPath>
</defs>
</svg>
