<svg width="64" height="65" viewBox="0 0 64 65" fill="none" xmlns="http://www.w3.org/2000/svg">
<g clip-path="url(#clip0_10279_55186)">
<path d="M53.4025 43.2126C52.6706 42.4807 51.4837 42.4807 50.7516 43.2126L48.0615 45.9027L45.3714 43.2126C44.6395 42.4807 43.4525 42.4807 42.7205 43.2126C41.9884 43.9445 41.9884 45.1315 42.7205 45.8635L45.4106 48.5536L42.7205 51.2438C41.9884 51.9757 41.9884 53.1626 42.7205 53.8947C43.4528 54.627 44.6395 54.6266 45.3714 53.8947L48.0615 51.2045L50.7516 53.8947C51.4839 54.627 52.6706 54.6266 53.4025 53.8947C54.1346 53.1627 54.1346 51.9758 53.4025 51.2438L50.7124 48.5536L53.4025 45.8635C54.1347 45.1315 54.1347 43.9445 53.4025 43.2126Z" fill="white"/>
<path d="M1.8826 12.2803C2.91782 12.2803 3.75709 11.441 3.75709 10.4058V4.24909H9.91376C12.3982 4.15687 12.3963 0.591472 9.91376 0.500122H1.8826C0.847386 0.500122 0.00811768 1.33939 0.00811768 2.37461V10.4058C0.00811768 11.441 0.847386 12.2803 1.8826 12.2803Z" fill="white"/>
<path d="M29.9915 4.24909H36.1482V10.4058C36.2404 12.8902 39.8058 12.8883 39.8971 10.4058V2.37461C39.8971 1.33939 39.0579 0.500122 38.0226 0.500122H29.9915C27.507 0.592347 27.5089 4.15774 29.9915 4.24909Z" fill="white"/>
<path d="M48.0615 32.6245C45.0792 32.6245 42.2862 33.4492 39.8971 34.8812V30.4835C39.8049 27.999 36.2395 28.0009 36.1482 30.4835V36.6402H34.2326C31.6891 34.0351 28.4754 32.1716 24.951 31.2571C36.3629 25.8989 32.7366 8.6665 19.9524 8.53116C7.17214 8.66675 3.54327 25.8913 14.9461 31.2533C11.3739 32.1801 8.18824 34.0755 5.6853 36.64H3.75709V30.4834C3.66486 27.9989 0.0994675 28.0008 0.00811768 30.4834V38.5147C0.00811768 39.5499 0.847386 40.3891 1.8826 40.3891H2.80372C1.02921 43.3694 0.00811768 46.8481 0.00811768 50.5613V62.608C0.00811768 63.6432 0.847386 64.4825 1.8826 64.4825H38.0227C39.0579 64.4825 39.8971 63.6432 39.8971 62.608V62.2259C50.1962 68.614 64.163 60.7472 63.9904 48.5533C63.9905 39.7703 56.8447 32.6245 48.0615 32.6245ZM11.7881 20.4446C11.7881 15.9429 15.4507 12.2803 19.9525 12.2803C30.7689 12.6908 30.7658 28.2004 19.9524 28.6091C15.4507 28.6091 11.7881 24.9465 11.7881 20.4446ZM36.1482 60.7335H3.75709V50.5613C3.75709 46.7114 5.10834 43.1715 7.36022 40.3893H9.91376C11.7015 40.3874 12.4576 38.1055 11.0592 37.0333C16.1184 33.5237 23.7297 33.5007 28.8472 37.0324C27.4468 38.1048 28.2041 40.3876 29.9915 40.3893H32.5534C32.9298 40.8546 33.2837 41.3417 33.6097 41.852C30.945 47.4647 31.9668 54.5319 36.148 59.1238V60.7335H36.1482ZM48.0615 60.7335C41.3455 60.7335 35.8816 55.2695 35.8816 48.5535C36.4939 32.4172 59.6316 32.4217 60.2415 48.5536C60.2415 55.2695 54.7775 60.7335 48.0615 60.7335Z" fill="white"/>
</g>
<defs>
<clipPath id="clip0_10279_55186">
<rect width="64" height="64" fill="white" transform="translate(0 0.500122)"/>
</clipPath>
</defs>
</svg>
