<svg width="48" height="48" viewBox="0 0 48 48" fill="none" xmlns="http://www.w3.org/2000/svg">
<g clip-path="url(#clip0_10279_55275)">
<path d="M24 4.00012C20.0444 4.00012 16.1776 5.1731 12.8886 7.37073C9.59962 9.56836 7.03617 12.6919 5.52242 16.3465C4.00867 20.001 3.6126 24.0223 4.3843 27.9019C5.15601 31.7815 7.06082 35.3452 9.85787 38.1423C12.6549 40.9393 16.2186 42.8441 20.0982 43.6158C23.9778 44.3875 27.9992 43.9915 31.6537 42.4777C35.3082 40.964 38.4318 38.4005 40.6294 35.1115C42.827 31.8225 44 27.9557 44 24.0001C43.9943 18.6976 41.8853 13.6138 38.1358 9.86432C34.3863 6.11484 29.3026 4.00586 24 4.00012V4.00012ZM24 7.33346C27.8441 7.33039 31.5699 8.66304 34.54 11.1035L11.1033 34.5401C9.10428 32.0999 7.83944 29.142 7.45604 26.0108C7.07263 22.8797 7.58644 19.704 8.93765 16.8535C10.2889 14.003 12.4219 11.5949 15.0885 9.90953C17.755 8.22414 20.8455 7.33078 24 7.33346ZM24 40.6668C20.1559 40.6699 16.4301 39.3372 13.46 36.8968L36.8967 13.4601C38.8957 15.9004 40.1606 18.8583 40.544 21.9894C40.9274 25.1206 40.4136 28.2962 39.0624 31.1467C37.7112 33.9972 35.5781 36.4053 32.9115 38.0907C30.245 39.7761 27.1546 40.6695 24 40.6668Z" fill="white"/>
</g>
<defs>
<clipPath id="clip0_10279_55275">
<rect width="40" height="40" fill="white" transform="translate(4 4.00012)"/>
</clipPath>
</defs>
</svg>
