<svg width="16" height="16" viewBox="0 0 16 16" fill="none" xmlns="http://www.w3.org/2000/svg">
<g clip-path="url(#clip0_10690_1416)">
<path d="M15.8406 7.54551L10.0224 0.273024C9.82949 0.0318618 9.50523 -0.06118 9.21379 0.0410739C8.9223 0.143279 8.72724 0.418478 8.72724 0.727324V15.2727C8.72724 15.5816 8.9223 15.8567 9.21379 15.9589C9.29267 15.9866 9.37393 16 9.45437 16C9.67114 16 9.88166 15.9029 10.0224 15.727L15.8406 8.45411C16.0531 8.18851 16.0531 7.81111 15.8406 7.54551ZM10.1818 13.1993V2.80057L14.3413 7.99981L10.1818 13.1993Z" fill="white"/>
<path d="M6.78615 0.0410662C6.49471 -0.0611878 6.1705 0.0318541 5.97753 0.273016L0.159381 7.54589C-0.053127 7.81149 -0.053127 8.18894 0.159381 8.45454L5.97753 15.727C6.11823 15.9029 6.3288 16 6.54557 16C6.62596 16 6.70732 15.9866 6.78615 15.9589C7.07764 15.8567 7.2727 15.5815 7.2727 15.2727V0.727316C7.2727 0.418421 7.07764 0.143272 6.78615 0.0410662ZM5.81816 13.1994L1.65862 8.00019L5.81816 2.80066V13.1994Z" fill="white"/>
</g>
<defs>
<clipPath id="clip0_10690_1416">
<rect width="16" height="16" fill="white"/>
</clipPath>
</defs>
</svg>
