<svg width="40" height="40" viewBox="0 0 40 40" fill="none" xmlns="http://www.w3.org/2000/svg">
<g filter="url(#filter0_b_10279_55460)">
<rect width="40" height="40" rx="20" fill="white"/>
<g clip-path="url(#clip0_10279_55460)">
<path d="M29.8007 19.4319L22.528 10.3413C22.2869 10.0398 21.8815 9.92353 21.5172 10.0513C21.1529 10.1791 20.9091 10.5231 20.9091 10.9092V29.0909C20.9091 29.477 21.1529 29.8209 21.5172 29.9487C21.6158 29.9833 21.7174 30 21.818 30C22.0889 30 22.3521 29.8786 22.528 29.6587L29.8007 20.5676C30.0663 20.2356 30.0663 19.7639 29.8007 19.4319ZM22.7272 26.4992V13.5007L27.9266 19.9998L22.7272 26.4992Z" fill="#0F1616"/>
<path d="M18.4827 10.0513C18.1184 9.92352 17.7131 10.0398 17.4719 10.3413L10.1992 19.4324C9.93359 19.7644 9.93359 20.2362 10.1992 20.5682L17.4719 29.6588C17.6478 29.8787 17.911 30 18.182 30C18.2824 30 18.3841 29.9833 18.4827 29.9487C18.8471 29.8209 19.0909 29.4769 19.0909 29.0909V10.9091C19.0909 10.523 18.8471 10.1791 18.4827 10.0513ZM17.2727 26.4993L12.0733 20.0002L17.2727 13.5008V26.4993Z" fill="#0F1616"/>
</g>
</g>
<defs>
<filter id="filter0_b_10279_55460" x="-50" y="-50" width="140" height="140" filterUnits="userSpaceOnUse" color-interpolation-filters="sRGB">
<feFlood flood-opacity="0" result="BackgroundImageFix"/>
<feGaussianBlur in="BackgroundImageFix" stdDeviation="25"/>
<feComposite in2="SourceAlpha" operator="in" result="effect1_backgroundBlur_10279_55460"/>
<feBlend mode="normal" in="SourceGraphic" in2="effect1_backgroundBlur_10279_55460" result="shape"/>
</filter>
<clipPath id="clip0_10279_55460">
<rect width="20" height="20" fill="white" transform="translate(10 10)"/>
</clipPath>
</defs>
</svg>
