<?xml version="1.0" encoding="UTF-8"?>
<svg id="Layer_2" data-name="Layer 2" xmlns="http://www.w3.org/2000/svg" viewBox="0 0 511.37 511.37">
  <defs>
    <style>
      .cls-1 {
        fill: none;
      }

      .cls-1, .cls-2 {
        stroke-width: 0px;
      }

      .cls-2 {
        fill: #fff;
      }
    </style>
  </defs>
  <g id="Layer_1-2" data-name="Layer 1">
    <g>
      <path class="cls-2" d="m166.79,499.18c-23.64-.08-41.8-21.34-38.59-44.81,2.46-17.98,6.92-35.3,15.64-51.32,1.37-2.52.57-3.39-1.68-4.43-7.38-3.41-7.34-3.48-12.37,2.85-12.29,15.49-34.99,14.24-44.39-3.06-6.63-12.2-4.07-30.08,11.7-37.43,3.68-1.72,4.38-3.17,3.04-7.06-13.23-38.61,11.45-82.35,51.36-90.9,4.94-1.06,6.83-2.96,6.38-7.91-.36-3.97-.23-8-.03-11.99.18-3.58-.99-5.64-4.46-7.31-20.18-9.7-25.48-33.3-11.66-50.89,3.17-4.03,7.22-6.95,11.83-8.96,3.25-1.42,4.37-3.52,4.33-6.96-.14-11.5-.08-23-.04-34.49.03-8.55,2.19-11.62,10.09-14.59,4.91-1.85,6.78-4.82,5.83-9.55-.97-4.84-4.67-5.6-8.76-5.55-5.09.06-7.46,2.13-8.12,6.92-1.14,8.28-4.89,12.59-10.47,12.05-6.29-.6-9.5-5.93-8.68-14.41,1.12-11.58,11.24-21.9,23.16-23.61,13.28-1.91,25.49,4.83,30.39,16.77,4.54,11.07,1.01,24.06-9.16,31.05-3.97,2.73-5.38,5.61-5.2,10.25.33,8.49.2,17,.05,25.49-.06,3.27,1.13,5.14,4.12,6.56,12.62,6.02,19.49,16.34,19.48,30.14,0,13.63-6.9,23.77-19.3,29.73-3.17,1.52-4.51,3.45-4.35,6.92.21,4.49.25,9.01-.01,13.49-.23,3.88,1.26,5.67,5.09,6.46,12.01,2.47,22.7,7.83,31.69,16.13,22.14,20.45,29.25,45.38,21.19,74.4-1.17,4.2-1.29,6.23,3.27,8.27,9.89,4.42,15.75,15.28,14.81,25.64-1.06,11.65-9.02,21.29-20.03,24.25-10.47,2.82-21.62-1.26-28.34-10.21-1.37-1.82-2-5.32-4.24-5.13-3.16.26-6.24,2.05-9.25,3.43-2.09.97-.89,2.49-.16,3.77,8.84,15.65,12.99,32.78,15.54,50.33,3.6,24.74-14.84,45.73-39.71,45.64Zm.6-219.19c-28.62-.01-51.92,23.37-52.06,52.23-.14,28.45,23.65,52.51,52.06,52.34,27.71-.16,51.9-21.81,51.99-52.83.08-28.47-23.71-51.73-51.98-51.75Zm-20.39,175.02c-.18,16.42,8.25,25.7,20.49,25.62,11.94-.08,21.08-9.83,20.27-22.89-1.09-17.5-6.37-33.93-15.25-49.08-3.53-6.02-6.69-6.08-10.19-.17-9.03,15.26-13.95,31.87-15.32,46.52Zm6.08-249.16c-.01,7.98,6.29,14.43,14.09,14.43,8.02,0,14.6-6.63,14.51-14.62-.09-7.61-6.92-14.4-14.41-14.31-7.52.08-14.18,6.89-14.19,14.5Zm-36.47,179.39c-.02-4.53-3.83-8.25-8.32-8.11-4.2.12-7.95,4.04-7.81,8.16.16,4.53,3.43,7.58,8.15,7.61,4.66.03,7.99-3.17,7.97-7.65Zm117.19-.06c-.04-4.69-3.26-8.02-7.76-8.02-4.41,0-7.95,3.56-7.91,7.94.04,4.64,3.23,7.79,7.9,7.78,4.98,0,7.81-2.82,7.77-7.71Z"/>
      <path class="cls-2" d="m344.18,426.12c-23.1-.13-41.85-20.87-38.97-43.77,2.27-18.09,6.42-35.77,15.43-51.9,1.49-2.66,1.54-4.23-1.68-5.08-.96-.25-1.92-.64-2.76-1.15-3.61-2.17-5.73-1.62-8.23,2.33-8.62,13.63-25.69,16.53-38.3,7.03-16.31-12.27-13.97-37.02,4.53-45.82,3.51-1.67,4.13-3.1,2.99-6.73-12.39-39.49,9.65-79.62,49.69-90.81q8.05-2.25,8.05-10.56c0-.83-.09-1.68.01-2.5.95-7.78-1.07-12.64-8.8-17.38-21.98-13.48-19.38-45.3,3.94-56.59,3.81-1.85,4.99-4.02,4.92-8.01-.21-11.49-.18-23-.02-34.49.11-8.27,2.39-11.26,10.21-13.94,3.94-1.35,6.43-3.91,6.19-8.03-.25-4.38-3.22-6.93-7.47-7.46-4.32-.54-7.98.89-9.78,5.21-.62,1.49-.68,3.23-.87,4.87-.62,5.5-3.91,8.74-9.01,8.8-5.15.06-8.84-3.49-9.42-9.06-1.19-11.46,6.31-22.77,17.97-27.12,11.1-4.15,23.27-.92,31.31,8.32,7.09,8.14,8.21,20.06,2.77,29.9-2.14,3.87-5.07,7.11-8.95,9.2-2.87,1.54-3.99,3.5-3.93,6.75.17,9.5.16,19,0,28.49-.05,3.09.99,4.78,3.88,6.08,12.81,5.76,19.76,16.11,19.83,29.86.07,13.96-6.9,24.47-19.89,30.33-2.93,1.32-3.93,3.08-3.81,6.13.17,4.49.27,9.01-.02,13.49-.28,4.22,1.15,5.97,5.47,7.08,30.7,7.86,48.99,27.78,54.89,58.73,2.08,10.89,1.22,21.98-2.64,32.54-1.25,3.42-1.12,5.09,2.64,6.8,11.56,5.24,16.17,15.03,14.78,29.84-.85,9.01-9.39,18.16-19.34,20.7-10.92,2.79-22.08-1.57-28.89-11.16-1.11-1.56-1.56-4.67-3.63-4.29-3.36.62-6.58,2.28-9.67,3.86-1.41.72-.21,2.09.31,3.05,8.68,16.05,13.19,33.34,15.63,51.33,3.24,23.91-15.24,45.28-39.37,45.15Zm-51.33-166.87c.08,28.93,22.8,52.01,51.44,52.25,28.25.24,52.49-24.11,52.19-52.41-.31-29.32-23.2-52.29-52.09-52.26-28.99.03-51.62,23.04-51.55,52.42Zm71.96,122.71c-1.25-14.69-6.33-30.94-14.82-46.07-4.04-7.2-6.84-7.04-11.06.22-8.23,14.17-12.68,29.62-14.78,45.76-.84,6.42.08,12.67,4.41,17.91,5.47,6.63,14.92,9.12,23.15,6.18,8.62-3.07,13.27-10.63,13.1-24.01Zm-20.57-235.16c8.15.08,14.43-5.94,14.5-13.88.08-8.35-5.61-14.05-14.08-14.11-8.44-.06-14.41,5.58-14.52,13.7-.11,7.98,6.04,14.2,14.1,14.28Zm58.89,157.23c-4.61.03-7.9,3.25-7.95,7.8-.05,4.56,3.69,8.53,8.04,8.52,4.18-.01,8.22-4.29,8.11-8.58-.11-4.22-3.87-7.77-8.2-7.74Zm-125.18,7.84c-.05,4.83,3.39,8.56,7.81,8.47,4.13-.09,7.73-3.8,7.87-8.11.15-4.76-3.17-8.18-7.97-8.2-4.62-.01-7.66,3.08-7.71,7.83Z"/>
      <path class="cls-2" d="m167.42,287.64c24.39,0,44.66,20.25,44.58,44.51-.08,24.57-20.44,44.88-44.92,44.81-24.15-.07-44.24-20.47-44.24-44.92,0-24.35,20.14-44.42,44.58-44.41Zm25.42,45.09c.16-14.62-11.24-26.53-25.42-26.56-13.75-.03-25.36,11.58-25.52,25.52-.17,14.69,11.26,26.63,25.49,26.64,13.83,0,25.3-11.52,25.45-25.6Z"/>
      <path class="cls-2" d="m388.98,259.09c-.03,24.32-20.41,44.83-44.54,44.84-23.95,0-44.7-20.87-44.59-44.88.11-24.29,20.62-44.87,44.64-44.81,24.21.07,44.52,20.54,44.49,44.84Zm-44.69,25.65c14.5.05,25.53-10.92,25.64-25.5.1-14.34-11.15-25.89-25.35-26.02-14.14-.13-25.52,11.34-25.55,25.75-.04,14.64,10.84,25.73,25.27,25.78Z"/>
    </g>
    <rect class="cls-1" width="511.37" height="511.37"/>
  </g>
</svg>