<svg width="24" height="24" viewBox="0 0 24 24" fill="none" xmlns="http://www.w3.org/2000/svg">
<path d="M12.9051 20C11.881 20 10.9211 19.7603 10.0255 19.2808C9.12988 18.8013 8.40133 18.1335 7.83985 17.2775L4.75397 12.5546C4.68381 12.4508 4.65585 12.3386 4.67012 12.218C4.68451 12.0973 4.73573 11.9931 4.82376 11.9052C5.02141 11.6995 5.26283 11.5824 5.548 11.5537C5.83317 11.5251 6.0929 11.5928 6.32718 11.7569L8.90742 13.4963V6.12048C8.90742 5.96138 8.96287 5.82522 9.07378 5.712C9.18456 5.59878 9.32188 5.54217 9.48573 5.54217C9.64496 5.54217 9.78112 5.59878 9.89422 5.712C10.0074 5.82522 10.064 5.96138 10.064 6.12048V14.3875C10.064 14.6656 9.93952 14.8713 9.69046 15.0045C9.44127 15.1378 9.2005 15.1244 8.96814 14.9642L6.78096 13.4784L8.81258 16.6132C9.26238 17.3131 9.84917 17.8597 10.573 18.2531C11.2968 18.6466 12.0741 18.8434 12.9051 18.8434C14.2535 18.8434 15.4022 18.3713 16.3513 17.4273C17.3004 16.4832 17.7749 15.3345 17.7749 13.9811V6.6988C17.7749 6.53969 17.8303 6.40353 17.9411 6.29031C18.052 6.17709 18.1893 6.12048 18.3532 6.12048C18.5123 6.12048 18.6485 6.17709 18.7617 6.29031C18.8749 6.40353 18.9315 6.53969 18.9315 6.6988V13.9811C18.9315 15.6571 18.3467 17.0792 17.1769 18.2475C16.0072 19.4158 14.5832 20 12.9051 20ZM12.4444 4C12.6082 4 12.7456 4.05661 12.8563 4.16983C12.967 4.28305 13.0223 4.41921 13.0223 4.57831V11.1325C13.0223 11.2964 12.9669 11.4337 12.856 11.5445C12.745 11.6554 12.6077 11.7108 12.4438 11.7108C12.2798 11.7108 12.1425 11.6554 12.0319 11.5445C11.9211 11.4337 11.8657 11.2964 11.8657 11.1325V4.57831C11.8657 4.41921 11.9211 4.28305 12.032 4.16983C12.143 4.05661 12.2804 4 12.4444 4ZM15.4026 4.77108C15.5665 4.77108 15.7038 4.82769 15.8146 4.94092C15.9253 5.05414 15.9806 5.1903 15.9806 5.3494V11.1325C15.9806 11.2964 15.9251 11.4337 15.8142 11.5445C15.7033 11.6554 15.5659 11.7108 15.4021 11.7108C15.2381 11.7108 15.1008 11.6554 14.9901 11.5445C14.8793 11.4337 14.8239 11.2964 14.8239 11.1325V5.3494C14.8239 5.1903 14.8794 5.05414 14.9903 4.94092C15.1012 4.82769 15.2387 4.77108 15.4026 4.77108Z" fill="#101112"/>
</svg>
