<?xml version="1.0" encoding="UTF-8"?>
<svg id="Layer_2" data-name="Layer 2" xmlns="http://www.w3.org/2000/svg" viewBox="0 0 512 512">
  <defs>
    <style>
      .cls-1 {
        stroke-miterlimit: 10;
        stroke-width: 2.34px;
      }

      .cls-1, .cls-2 {
        fill: #fff;
        stroke: #fff;
      }

      .cls-3 {
        fill: none;
        stroke-width: 0px;
      }

      .cls-2 {
        stroke-linecap: round;
        stroke-linejoin: round;
        stroke-width: 11.72px;
      }
    </style>
  </defs>
  <g id="Layer_1-2" data-name="Layer 1">
    <rect class="cls-3" width="512" height="512"/>
    <g>
      <ellipse class="cls-2" cx="256.03" cy="247" rx="6.11" ry="6.18"/>
      <g>
        <path class="cls-1" d="m306.83,434.58c-4.36-4.31-5.8-8.74-5.15-14.42.05-.49.07-.99-.02-1.46-.4-2.14.56-3.28,2.4-4.34,10.04-5.84,11.53-20.03,2.19-26.61-4.4-3.09-5.2-6.29-4.82-10.79.07-.78.09-1.58-.02-2.33-.35-2.12.51-3.28,2.38-4.36,10.16-5.89,11.51-20.13,2.03-26.8-4.17-2.92-4.92-5.96-4.66-10.3.16-2.62-.02-5.28.02-7.92.02-1.06.23-2.12.47-3.16.79-3.82,2.07-7.59,2.38-11.45,2.14-26.11-15.89-49.07-40.78-53.08-.63-.09-1.21-.47-1.79-.85l-11.08-.21c-.56.57-2.98.99-4.93,1.39-3.1.61-5.06,3.44-4.45,6.46.58,2.78,3.87,5,6.64,4.27,7.29-1.93,14.52-1.11,21.28,1.63,20.65,8.39,30.55,31.42,20.97,52.42-7.92,17.39-26.12,25.67-43.83,21.24-19.5-4.88-31.69-24.02-28.55-43.72.49-3.06-1.47-5.96-4.38-6.6-2.66-.57-5.76,1.39-5.99,4.53-.4,5.23-1.03,10.65-.07,15.72,1.49,7.99,3.1,15.89,2.54,24.06v.28c.28,1.98-.49,3.06-2.35,4.05-10,5.37-11.49,20.6-2.12,26.87,4.26,2.88,5.17,5.84,4.73,10.23-.09.97-.09,1.96.02,2.92.21,2-.49,3.09-2.35,4.08-10,5.35-11.51,20.58-2.17,26.87,4.24,2.88,5.17,5.85,4.75,10.21-.12,1.06-.12,2.17.02,3.23.3,2.24-.68,3.7-2.21,5.26-2.28,2.31-4.52,4.83-6.15,7.61-3.59,6.06-6.13,12.4-3.57,19.7,3.19,9.24,12.02,14.8,21.41,12.66,8.51-1.96,14.8-9.26,14.61-18.83-.14-6.95-2.98-13.17-7.83-17.63-4.96-4.57-5.92-9.59-5.55-15.72.16-2.4.63-3.75,2.8-5,9.55-5.56,11.49-19.54,1.86-26.54-4.22-3.09-5.27-6.2-4.8-10.72.07-.87.09-1.79-.02-2.64-.26-1.89.33-3.04,2.17-3.87,6.32-2.8,10.7-12.73,7.81-18.97-.3-.64-.14-1.46-.19-2.22.4-.05.63-.14.77-.07,5.34,2.8,10.91,4.81,16.87,5.73.79.12,1.82,1.6,1.96,2.57.28,2.22-.07,4.5.16,6.74.26,2.33-.65,3.58-2.63,4.76-10.23,6.13-11.35,19.92-1.72,26.8,3.94,2.83,5.08,5.73,4.57,10.04-.09.87-.12,1.79.02,2.64.4,2.26-.56,3.51-2.49,4.57-5.24,2.88-8.02,7.54-8.27,13.48-.28,6.86,2.94,11.93,8.81,15.2,1.56.87,2.26,1.84,2.19,3.68-.14,3.02.07,6.06-.05,9.1-.05.94-.54,2-1.12,2.8-3.01,4.1-6.64,7.82-9.09,12.23-6.08,11.05-2.19,22.39,8.39,27.74.01,0,.02.01.03.02,2.2,1.13,4.65,1.69,7.12,1.68.74,0,1.49,0,2.23-.01,1.21,0,2.35-.44,3.41-1.01.09-.05.18-.09.27-.11,6.87-1.98,12.44-9.17,12.84-16.52.42-7.82-2.87-14.52-8.04-19.61-4.52-4.43-6.04-9.03-5.31-14.92.02-.28.05-.59,0-.87-.44-2.29.68-3.44,2.61-4.55,9.93-5.68,11.28-20.36,2-26.7-4.19-2.88-5.48-5.82-4.87-10.37.12-.85.09-1.77-.02-2.64-.3-2.14.63-3.28,2.49-4.34,10.49-5.94,11.35-20.86,1.35-27.41-3.29-2.17-4.68-4.36-4.05-8.08.05-.28,0-.59,0-.9q-.02-5.54,5.43-6.72c.47-.09.93-.24,1.4-.42,4.17-1.58,8.37-3.18,12.77-4.88-.07.82.02,1.63-.19,2.31-2.21,7.02-.12,13.29,5.52,16.92,4.47,2.9,5.08,6.1,4.73,10.49-.07.97-.09,1.98.02,2.95.23,1.91-.65,2.85-2.28,3.77-5.5,3.16-8.58,8.08-8.48,14.47.12,6.34,3.05,11.27,8.72,14.38.84.47,2.12,1.34,2.1,2-.19,6.01,2.35,12.8-4.36,17.16-.54.35-.96.94-1.35,1.51-5.03,7.14-9.13,14.57-5.99,23.78,2.54,7.49,10.02,14.09,20.76,12.35,8.02-1.32,14.59-8.3,15.15-17.23.49-7.85-2.84-14.54-8.02-19.63Zm-83.4,18.64c.26,4.5-3.26,7.94-7.69,7.99-5.15.02-9.2-4.95-7.43-9.97,1.28-3.63,3.68-6.88,5.8-10.16.35-.57,2.24-.9,2.59-.54,3.4,3.56,6.43,7.49,6.73,12.68Zm-2.56-52.58c0,3.16-2.28,5.4-5.5,5.37-3.12,0-5.48-2.36-5.45-5.44,0-2.9,2.68-5.54,5.55-5.52,2.91.02,5.43,2.62,5.41,5.59Zm-5.64-38.72c-3.15.02-5.55-2.26-5.57-5.35-.05-2.85,2.61-5.59,5.43-5.63,2.94-.02,5.5,2.52,5.55,5.49.02,3.16-2.24,5.47-5.41,5.49Zm48.66,117.11c0,4.67-1.89,7.68-4.99,8.86-2.87,1.08-5.5.49-7.81-1.56-2.77-2.45-3.38-5.73-2.14-8.79,1.35-3.35,3.59-6.36,5.66-9.38.37-.57,2.17-.92,2.54-.57,3.52,3.56,6.27,7.59,6.73,11.43Zm-2.54-51.33c-.02,2.9-2.45,5.42-5.31,5.49-3.01.07-5.55-2.5-5.55-5.56.02-3.04,2.28-5.33,5.31-5.37,3.17-.05,5.55,2.26,5.55,5.44Zm-.26-44.21c.05,3.04-2.49,5.63-5.5,5.61-2.87-.05-5.31-2.55-5.34-5.47-.05-3.16,2.28-5.49,5.48-5.49,3.03.02,5.31,2.31,5.36,5.35Zm29.29-27.34c-.05-2.99,2.45-5.61,5.36-5.66,2.84-.07,5.57,2.57,5.62,5.44.07,3.04-2.31,5.47-5.41,5.52-3.22.05-5.52-2.14-5.57-5.3Zm.26,44.17c-.07-2.99,2.38-5.63,5.29-5.73,2.84-.09,5.59,2.52,5.69,5.37.09,3.04-2.28,5.54-5.34,5.59-3.22.07-5.57-2.12-5.64-5.23Zm8.74,59.91c-2.89,1.04-5.78.8-8.13-1.39-2.47-2.31-3.52-5.42-2.24-8.46,1.42-3.39,3.57-6.5,5.64-9.59.4-.59,2.35-.99,2.75-.61,3.52,3.49,6.15,7.57,6.73,11.88.02,3.94-1.91,7.16-4.75,8.18Z"/>
        <path class="cls-1" d="m255.38,284.38c-11.95-.02-21.9,9.99-21.9,22.01.02,11.93,9.97,21.97,21.72,21.97,11.84-.02,21.76-10.04,21.76-21.94s-9.88-22.04-21.58-22.04Zm-.19,33.14c-5.85-.02-10.95-5.26-10.95-11.19s4.96-10.96,11-10.98c5.97,0,10.93,4.97,10.95,11.01.05,5.89-5.17,11.19-11,11.17Z"/>
        <path class="cls-1" d="m228.99,275.81c0,3.09-2.14,5.38-5.06,5.43-2.91.06-5.3-2.5-5.25-5.61.05-3.09,2.21-5.34,5.14-5.36,3.11-.02,5.18,2.19,5.17,5.53Z"/>
      </g>
      <line class="cls-2" x1="256.03" y1="17.66" x2="256.03" y2="260.01"/>
    </g>
  </g>
</svg>