<svg width="32" height="40" viewBox="0 0 32 40" fill="none" xmlns="http://www.w3.org/2000/svg">
<path d="M30.2909 19.7078C30.2909 22.8454 30.4689 25.9953 30.2479 29.1207C29.9532 33.3267 27.9944 36.6609 24.1875 38.7117C22.7446 39.4915 21.142 39.7739 19.521 39.9213C17.5254 40.1055 15.5544 40.038 13.6325 39.381C10.9616 38.4661 8.94143 36.7223 7.3327 34.4565C5.53363 31.9206 4.44067 29.0654 3.64245 26.0936C3.21877 24.5217 2.61704 23.0296 1.92933 21.5683C1.30917 20.2358 1.71443 18.8052 2.92404 18.1359C4.15822 17.4543 5.60731 17.8534 6.38097 19.1245C7.71339 21.3165 9.0274 23.527 10.3475 25.7313C10.4212 25.8541 10.4888 25.9769 10.5686 26.0936C10.851 26.4866 11.2993 26.5909 11.6922 26.3638C12.0729 26.1366 12.2019 25.6761 11.987 25.2462C11.8703 25.0068 11.7229 24.7796 11.5879 24.5463C10.937 23.4349 10.2739 22.3235 9.63527 21.1999C9.53089 21.0156 9.45721 20.7762 9.45721 20.5613C9.44493 15.7351 9.45721 10.9027 9.44493 6.07656C9.43879 4.48011 10.8817 3.71872 12.2756 4.24064C12.9633 4.49853 13.3501 5.11255 13.3562 5.86779C13.3747 9.8712 13.3931 13.8746 13.4054 17.8841C13.4054 18.0377 13.3992 18.1973 13.4176 18.3508C13.4729 18.7561 13.8474 19.0692 14.2527 19.0569C14.6518 19.0446 14.9895 18.7499 15.0386 18.3508C15.0632 18.1666 15.0571 17.9824 15.0571 17.7982C15.0448 12.5606 15.0571 7.31688 15.0079 2.07929C14.9957 0.875814 15.8491 -0.22328 17.4456 0.0530282C18.3482 0.212673 18.9499 0.906515 18.9561 1.83982C18.9684 3.33189 18.9561 4.82396 18.9561 6.31602C18.9561 10.3931 18.9561 14.4702 18.9561 18.5411C18.9561 18.7499 18.9622 18.971 19.0298 19.1674C19.1464 19.5052 19.4105 19.6832 19.7789 19.6894C20.1473 19.6894 20.4174 19.5297 20.5464 19.192C20.6201 19.0017 20.6324 18.7745 20.6324 18.5657C20.6324 14.1325 20.6324 9.70541 20.6324 5.27219C20.6324 4.27748 21.3078 3.5161 22.2656 3.41785C23.4139 3.29505 24.2919 3.84153 24.513 4.83624C24.5621 5.05728 24.5621 5.28447 24.5621 5.51166C24.5621 10.2826 24.5621 15.0535 24.5621 19.8244C24.5621 19.9779 24.5559 20.1376 24.5805 20.2911C24.648 20.6964 24.9796 20.9727 25.3849 20.9788C25.7963 20.9788 26.1217 20.7332 26.2015 20.3218C26.2384 20.1437 26.2384 19.9534 26.2384 19.7692C26.2506 16.6193 26.2506 13.4632 26.2691 10.3133C26.2752 8.93175 27.4848 7.99844 28.7804 8.35457C29.6646 8.59404 30.1988 9.34928 30.2111 10.3808C30.2356 13.1194 30.2479 15.864 30.2663 18.6025C30.2663 18.971 30.2663 19.3394 30.2663 19.7078H30.2909Z" fill="white"/>
<path fill-rule="evenodd" clip-rule="evenodd" d="M15.1416 14.6627C15.1416 13.6357 15.9742 12.8031 17.0012 12.8031H17.0178C18.0448 12.8031 18.8773 13.6357 18.8773 14.6627C18.8773 15.6896 18.0448 16.5222 17.0178 16.5222H17.0012C15.9742 16.5222 15.1416 15.6896 15.1416 14.6627Z" fill="black"/>
<path fill-rule="evenodd" clip-rule="evenodd" d="M13.2996 14.6627C13.2996 12.6183 14.9568 10.9611 17.0012 10.9611H17.0178C19.0621 10.9611 20.7194 12.6183 20.7194 14.6627C20.7194 16.707 19.0621 18.3643 17.0178 18.3643H17.0012C14.9568 18.3643 13.2996 16.707 13.2996 14.6627ZM17.0012 12.8031C15.9742 12.8031 15.1416 13.6357 15.1416 14.6627C15.1416 15.6896 15.9742 16.5222 17.0012 16.5222H17.0178C18.0448 16.5222 18.8773 15.6896 18.8773 14.6627C18.8773 13.6357 18.0448 12.8031 17.0178 12.8031H17.0012Z" fill="white"/>
</svg>
