<svg width="24" height="24" viewBox="0 0 24 24" fill="none" xmlns="http://www.w3.org/2000/svg">
<g clip-path="url(#clip0_11242_379)">
<path d="M19.8045 18.8625L15.8252 14.8831C16.9096 13.5569 17.4428 11.8645 17.3144 10.1562C17.1861 8.44782 16.406 6.85415 15.1356 5.70481C13.8652 4.55547 12.2016 3.93839 10.4889 3.98121C8.77632 4.02404 7.14566 4.72348 5.93426 5.93487C4.72287 7.14627 4.02343 8.77693 3.9806 10.4896C3.93778 12.2022 4.55486 13.8658 5.7042 15.1362C6.85354 16.4066 8.44721 17.1867 10.1556 17.315C11.8639 17.4434 13.5563 16.9102 14.8825 15.8258L18.8619 19.8051C18.9876 19.9266 19.156 19.9938 19.3308 19.9922C19.5056 19.9907 19.6728 19.9206 19.7964 19.797C19.92 19.6734 19.9901 19.5062 19.9916 19.3314C19.9932 19.1566 19.926 18.9882 19.8045 18.8625ZM10.6665 16.0005C9.61169 16.0005 8.58054 15.6877 7.70348 15.1016C6.82642 14.5156 6.14283 13.6826 5.73916 12.7081C5.3355 11.7336 5.22988 10.6612 5.43567 9.62665C5.64145 8.59208 6.14941 7.64178 6.89529 6.8959C7.64117 6.15002 8.59147 5.64206 9.62604 5.43628C10.6606 5.23049 11.733 5.33611 12.7075 5.73977C13.682 6.14344 14.515 6.82703 15.101 7.70409C15.6871 8.58115 15.9999 9.6123 15.9999 10.6671C15.9983 12.0811 15.4359 13.4368 14.436 14.4366C13.4362 15.4365 12.0805 15.9989 10.6665 16.0005Z" fill="#101112"/>
<path d="M12.6667 10H11.3333V8.66667C11.3333 8.48985 11.2631 8.32029 11.1381 8.19526C11.013 8.07024 10.8435 8 10.6667 8C10.4899 8 10.3203 8.07024 10.1953 8.19526C10.0702 8.32029 10 8.48985 10 8.66667V10H8.66667C8.48985 10 8.32029 10.0702 8.19526 10.1953C8.07024 10.3203 8 10.4899 8 10.6667C8 10.8435 8.07024 11.013 8.19526 11.1381C8.32029 11.2631 8.48985 11.3333 8.66667 11.3333H10V12.6667C10 12.8435 10.0702 13.013 10.1953 13.1381C10.3203 13.2631 10.4899 13.3333 10.6667 13.3333C10.8435 13.3333 11.013 13.2631 11.1381 13.1381C11.2631 13.013 11.3333 12.8435 11.3333 12.6667V11.3333H12.6667C12.8435 11.3333 13.013 11.2631 13.1381 11.1381C13.2631 11.013 13.3333 10.8435 13.3333 10.6667C13.3333 10.4899 13.2631 10.3203 13.1381 10.1953C13.013 10.0702 12.8435 10 12.6667 10Z" fill="#101112"/>
</g>
<defs>
<clipPath id="clip0_11242_379">
<rect width="16" height="16" fill="white" transform="translate(4 4)"/>
</clipPath>
</defs>
</svg>
