<svg width="96" height="96" viewBox="0 0 96 96" fill="none" xmlns="http://www.w3.org/2000/svg">
<g clip-path="url(#clip0_10279_55185)">
<path d="M69.4025 58.7126C68.6706 57.9807 67.4837 57.9807 66.7516 58.7126L64.0615 61.4027L61.3714 58.7126C60.6395 57.9807 59.4525 57.9807 58.7205 58.7126C57.9884 59.4445 57.9884 60.6315 58.7205 61.3635L61.4106 64.0536L58.7205 66.7438C57.9884 67.4757 57.9884 68.6626 58.7205 69.3947C59.4528 70.127 60.6395 70.1266 61.3714 69.3947L64.0615 66.7045L66.7516 69.3947C67.4839 70.127 68.6706 70.1266 69.4025 69.3947C70.1346 68.6627 70.1346 67.4758 69.4025 66.7438L66.7124 64.0536L69.4025 61.3635C70.1347 60.6315 70.1347 59.4445 69.4025 58.7126Z" fill="white"/>
<path d="M17.8826 27.7803C18.9178 27.7803 19.7571 26.941 19.7571 25.9058V19.7491H25.9138C28.3982 19.6569 28.3963 16.0915 25.9138 16.0001H17.8826C16.8474 16.0001 16.0081 16.8394 16.0081 17.8746V25.9058C16.0081 26.941 16.8474 27.7803 17.8826 27.7803Z" fill="white"/>
<path d="M45.9915 19.7491H52.1482V25.9058C52.2404 28.3902 55.8058 28.3883 55.8971 25.9058V17.8746C55.8971 16.8394 55.0579 16.0001 54.0226 16.0001H45.9915C43.507 16.0923 43.5089 19.6577 45.9915 19.7491Z" fill="white"/>
<path d="M64.0615 48.1245C61.0792 48.1245 58.2862 48.9492 55.8971 50.3812V45.9835C55.8049 43.499 52.2395 43.5009 52.1482 45.9835V52.1402H50.2326C47.6891 49.5351 44.4754 47.6716 40.951 46.7571C52.3629 41.3989 48.7366 24.1665 35.9524 24.0312C23.1721 24.1667 19.5433 41.3913 30.9461 46.7533C27.3739 47.6801 24.1882 49.5755 21.6853 52.14H19.7571V45.9834C19.6649 43.4989 16.0995 43.5008 16.0081 45.9834V54.0147C16.0081 55.0499 16.8474 55.8891 17.8826 55.8891H18.8037C17.0292 58.8694 16.0081 62.3481 16.0081 66.0613V78.108C16.0081 79.1432 16.8474 79.9825 17.8826 79.9825H54.0227C55.0579 79.9825 55.8971 79.1432 55.8971 78.108V77.7259C66.1962 84.114 80.163 76.2472 79.9904 64.0533C79.9905 55.2703 72.8447 48.1245 64.0615 48.1245ZM27.7881 35.9446C27.7881 31.4429 31.4507 27.7803 35.9525 27.7803C46.7689 28.1908 46.7658 43.7004 35.9524 44.1091C31.4507 44.1091 27.7881 40.4465 27.7881 35.9446ZM52.1482 76.2335H19.7571V66.0613C19.7571 62.2114 21.1083 58.6715 23.3602 55.8893H25.9138C27.7015 55.8874 28.4576 53.6055 27.0592 52.5333C32.1184 49.0237 39.7297 49.0007 44.8472 52.5324C43.4468 53.6048 44.2041 55.8876 45.9915 55.8893H48.5534C48.9298 56.3546 49.2837 56.8417 49.6097 57.352C46.945 62.9647 47.9668 70.0319 52.148 74.6238V76.2335H52.1482ZM64.0615 76.2335C57.3455 76.2335 51.8816 70.7695 51.8816 64.0535C52.4939 47.9172 75.6316 47.9217 76.2415 64.0536C76.2415 70.7695 70.7775 76.2335 64.0615 76.2335Z" fill="white"/>
</g>
<defs>
<clipPath id="clip0_10279_55185">
<rect width="64" height="64" fill="white" transform="translate(16 16.0001)"/>
</clipPath>
</defs>
</svg>
