<?xml version="1.0" encoding="UTF-8"?>
<svg id="Layer_2" data-name="Layer 2" xmlns="http://www.w3.org/2000/svg" viewBox="0 0 511.37 511.37">
  <defs>
    <style>
      .cls-1 {
        fill: none;
      }

      .cls-1, .cls-2 {
        stroke-width: 0px;
      }

      .cls-2 {
        fill: #fff;
      }
    </style>
  </defs>
  <g id="Layer_1-2" data-name="Layer 1">
    <g>
      <path class="cls-2" d="m345.36,439.97c-2.15-11.69,2.43-20.9,11.45-28.35,2.04-1.69,3.76-3.76,5.63-5.66,1.4-1.43,1.08-2.96.36-4.6-.72-1.62-1.92-2.31-3.58-1.98-4.42.9-8.6.04-12.65-1.67-2.03-.86-3.47-.04-4.99,1.15-6.55,5.12-13.08,10.26-19.73,15.26-2.15,1.62-2.72,3.56-2.51,6.06.81,9.4-3.63,15.89-11.45,20.47-8.61,5.05-17.23,10.06-25.8,15.17-8.37,4.99-16.63,5.37-24.73-.48-2.02-1.46-3.86-1.32-6.06-.45-8.51,3.34-17.05,6.61-25.64,9.72-2.42.88-3.72,2.13-4.52,4.67-2.2,7.03-7.09,11.89-14.22,13.38-12.68,2.66-25.47,4.81-38.46,5.46-7.52.37-13.27-2.57-17.25-8.85-1.4-2.2-3.09-3.15-5.68-3.25-14.61-.54-28.59-4.12-42.14-9.4-2.63-1.03-4.83-1.26-7.58-.15-7.76,3.13-15.25,2.16-21.32-3.7-9.08-8.78-18.03-17.73-26.48-27.11-4.86-5.4-5.84-12.27-2.84-19.17,1.24-2.84,1.18-5.35-.03-8.11-5.85-13.42-8.37-27.63-9.65-42.1-.18-1.98-.06-3.98-2.19-5.21-9.5-5.52-11.12-14.28-9.69-24.16,1.31-9.04,2.86-18.05,4.15-27.1,1.35-9.54,5.87-16.5,15.39-19.51,1.94-.61,3.08-1.74,3.68-3.65,2.89-9.21,6.45-18.18,10.35-27,.96-2.18.38-3.65-.9-5.43-5.43-7.55-5.47-15.44-.92-23.4,5.12-8.95,10.4-17.81,15.49-26.77,4.83-8.5,11.83-12.88,21.77-11.69,2.14.26,3.38-.55,4.6-2.14,5.39-6.97,10.81-13.92,16.36-20.77,1.43-1.76,1.07-3.2.32-5.01-3.56-8.57-2.09-16.39,4.29-23.01,7.61-7.91,15.41-15.64,23.29-23.28,6.57-6.37,14.3-8.24,22.93-4.74,2.51,1.02,4.29.63,6.35-1.03,6.33-5.12,12.77-10.12,19.27-15.03,2.05-1.54,2.92-3,2.61-5.81-.85-7.66,1.66-14.39,8.28-18.54,10.7-6.71,21.62-13.08,32.7-19.15,6.66-3.65,13.61-2.86,19.8,1.51,2.64,1.86,4.86,2.12,7.8.92,8.16-3.31,16.4-6.45,24.68-9.44,2.61-.94,4.06-2.44,5.02-4.99,2.93-7.79,8.52-12.7,16.83-13.84,12.01-1.65,23.85-4.41,36.05-4.78,6.99-.21,12.41,2.44,16.23,7.98,2.16,3.14,4.66,4.11,8.28,4.28,14.26.66,27.88,4.32,41.1,9.54,2.33.92,4.3,1.01,6.65.03,8.04-3.34,15.49-1.87,21.7,4.03,8.57,8.12,16.97,16.43,25.12,24.98,5.93,6.22,7.23,13.73,3.75,21.7-1.04,2.37-.96,4.3-.01,6.62,5.28,12.86,8.41,26.24,9.46,40.11.3,3.91,1.28,7.13,4.97,9.65,4.88,3.33,7.13,8.33,7.12,14.58-.03,13.57-2.84,26.75-5.28,39.96-1.29,7-6.12,11.75-12.91,14.01-2.82.94-4.32,2.43-5.27,5.25-2.88,8.5-5.78,17.01-9.64,25.13-1.12,2.36-.99,4.24.68,6.4,5.37,6.93,5.63,14.46,1.46,21.97-5.58,10.02-11.33,19.96-17.31,29.74-4.44,7.26-11.09,10.94-19.75,9.92-2.71-.32-4.32.51-5.88,2.59-4.99,6.65-10.09,13.22-15.25,19.73-1.37,1.73-2.08,3.21-.91,5.37,1.98,3.63,2.36,7.61,1.72,11.64-.29,1.86-.13,3.19,1.83,4.02,1.85.78,3.4,1.02,4.97-.61,3.24-3.35,6.61-6.57,9.88-9.88,4.81-4.88,10.54-7.12,17.46-7.13,25.79-.02,21.16-1.22,40.94,18.76,3.41,3.44,5.02,7.91,4.76,12.75-.31,5.63-.87,11.27-1.61,16.86-.67,5.05-4.18,8.08-8.18,7.54-4.13-.56-6.85-4.32-6.57-9.11.15-2.49-.13-5.11.56-7.44,3.55-11.97-5.9-16.9-12.59-23.04-2.74-2.52-7.16-.44-10.67-1.16-12.21-2.5-17.69,6.76-24.52,13.68-1.27,1.28-1.03,3.1-1.04,4.76-.03,5.32.03,10.64-.04,15.97-.16,12.45-7.31,19.91-19.72,20.41-5.31.22-10.65.19-15.96.05-3.22-.08-5.9.7-7.93,3.27-.2.26-.43.53-.71.7-11.11,6.86-11.4,17.63-10.5,28.87.16,1.96.98,3.41,2.25,4.83,11.38,12.66,11.71,12.76,28.65,10.52,2.95-.39,5.98-.55,8.95-.42,4.17.17,6.98,2.36,7.28,6.7.28,4.04-1.89,7.02-5.78,7.57-9.53,1.35-19.13,2.54-28.79,1.96-1.75-.11-3.88-.62-5.12-1.74-11.17-10.06-25.78-18.1-22.28-37.15Zm56.19-376.17c.27-2.68,1.62-5.5-2.47-6.9-10.29-3.54-20.81-5.72-31.66-6.39-2.22-.14-3.32.66-4.08,2.68-3.17,8.34-9.64,12.32-18.16,13.57-9.7,1.42-19.42,2.73-29.07,4.45-8.87,1.58-16.17-.71-21.71-7.82-1.74-2.24-3.44-2.69-5.98-1.68-6.64,2.63-13.31,5.2-20.03,7.63-2.88,1.04-4.1,2.69-4.22,5.87-.28,7.28-3.55,13.13-9.88,16.92-9.84,5.89-19.75,11.67-29.72,17.34-6.74,3.83-13.72,3.91-20.4-.07-2.48-1.48-4.19-1.13-6.24.48-5.75,4.53-11.54,8.99-17.38,13.4-2.24,1.69-2.98,3.47-2.25,6.41,1.58,6.34.09,12.2-4.01,17.33-3.69,4.62-8.01,5.65-11.6,2.82-3.55-2.79-3.68-6.54-.38-11.36,2.65-3.86,2.17-6.75-1.63-9.91-3.25-2.71-6.27-2.45-9.24.55-7.25,7.33-14.63,14.54-21.84,21.9-4.02,4.11-3.67,7.31.89,10.79,3.65,2.79,6.71,1.47,9.8-1.2,4.06-3.5,7.95-3.48,10.99-.25,3.07,3.26,2.7,6.94-1.09,10.98-5.54,5.9-12.18,8.56-20.24,6.72-2.32-.53-4.2-.46-5.77,1.58-4.77,6.19-9.58,12.35-14.42,18.48-1.41,1.78-1.58,3.36-.28,5.4,4.51,7.03,4.01,14.19-.03,21.23-5.46,9.52-10.94,19.02-16.52,28.47-4.03,6.82-10.01,10.58-18.05,10.42-2.35-.05-3.81.63-4.63,2.81-2.82,7.46-5.65,14.92-8.51,22.37-.75,1.94-.56,3.45,1.31,4.74,8,5.48,9.83,13.39,8.47,22.4-1.53,10.18-3.1,20.36-4.81,30.52-1.23,7.35-4.94,13.12-12.03,15.98-3.25,1.31-4.2,3.24-3.89,6.48.96,9.97,2.98,19.7,6.17,29.2.98,2.92,2.49,3.77,5.59,3.13,6.65-1.37,12.59.55,17.41,5.27,8.42,8.27,16.77,16.63,24.97,25.11,4.66,4.82,6.79,10.75,5.26,17.4-.83,3.62.84,4.75,3.66,5.72,9.81,3.37,19.87,5.33,30.21,6.12,2.68.21,3.82-.74,4.78-3.1,3.17-7.81,9.33-11.82,17.48-13.07,10.18-1.57,20.36-3.19,30.55-4.72,8.37-1.25,15.53.88,20.7,7.95,1.46,2,2.96,2.81,5.49,1.95,7.24-2.48,14.38-5.19,21.4-8.25,2.42-1.06,3.56-2.62,3.54-5.35-.07-8.38,4.45-14.01,11.32-18.06,8.88-5.24,17.78-10.44,26.69-15.62,7.29-4.24,14.71-5.02,22.19-.49,1.71,1.04,3.17,1.51,4.96.08,6.36-5.08,12.8-10.07,19.23-15.08,1.43-1.12,2.19-2.32,1.58-4.27-2.75-8.69.62-15.63,6.55-21.68,7.1-7.25,14.27-14.42,21.51-21.53,5.7-5.6,12.43-8.28,20.46-6.29,2.47.61,4.12-.03,5.62-1.98,4.37-5.66,8.78-11.29,13.28-16.84,2-2.47,2.34-4.56.65-7.59-3.37-6-3.65-12.53-.28-18.63,5.79-10.47,11.81-20.82,17.99-31.07,3.78-6.27,9.62-9.74,16.99-9.59,3.17.07,4.51-1.13,5.48-3.74,2.56-6.85,5.15-13.69,7.86-20.48,1.07-2.69.71-4.41-1.81-6.3-6.53-4.88-9.11-11.56-7.87-19.72,1.55-10.19,3.01-20.38,4.42-30.59,1.18-8.57,5.28-14.97,13.41-18.38,2.29-.96,3.52-2.25,3.25-4.86-1.1-10.62-3.12-21.03-6.85-31.07-.84-2.26-2.26-3.13-4.61-2.6-8.01,1.81-14.33-1.53-19.82-6.85-7.52-7.29-14.93-14.7-22.3-22.14-4.69-4.73-7.15-10.36-6.3-17.16Zm-47.03,320.83c2.76.12,4.27-.57,5.49-1.77,7.66-7.61,15.38-15.18,22.88-22.95,3.02-3.13,2.74-6.61-.47-9.66-3.17-3-6.57-3.23-9.71-.16-7.6,7.44-15.06,15.02-22.59,22.53-1.99,1.99-2.65,4.42-1.38,6.83,1.39,2.65,3.41,4.94,5.8,5.18Zm-259.12,61.9c.08-2.75-.64-4.39-1.97-5.74-7.45-7.54-14.88-15.11-22.43-22.55-3.15-3.1-6.39-2.85-9.58.29-3.13,3.08-3.75,6.34-.63,9.56,7.49,7.74,15.13,15.33,22.75,22.94,1.91,1.91,4.23,2.79,6.78,1.48,2.74-1.41,4.88-3.42,5.09-5.98Zm349.32-176.86c.25-4.03-2.71-5.44-5.65-6.65-3.34-1.38-5.77.05-7.48,3-5.26,9.03-10.55,18.05-15.76,27.1-2.57,4.46-1.85,7.17,2.31,9.52,4.35,2.45,7.52,1.75,10.03-2.49,4.98-8.42,9.86-16.91,14.76-25.38.92-1.58,1.77-3.2,1.8-5.1Zm-174.68,174.94c.69-.18,1.76-.24,2.58-.72,9.81-5.61,19.66-11.15,29.32-17.01,3.85-2.33,3.07-5.79.99-9.14-2.05-3.3-4.81-4.79-8.38-2.77-9.69,5.48-19.3,11.11-28.9,16.76-2.56,1.51-3.73,3.84-2.43,6.79,1.29,2.91,2.66,5.85,6.81,6.08ZM97.4,214.12c-.17-3.8-2.83-5.46-5.94-6.45-3.31-1.05-5.78.37-7.48,3.3-5.07,8.74-10.22,17.44-15.22,26.22-2.95,5.18-2.34,7.47,2.34,10.28,4.43,2.65,6.88,1.93,10.03-3.35,5-8.39,9.86-16.88,14.79-25.32.84-1.45,1.55-2.93,1.49-4.68Zm-40.3,97.19c-.07-5.17-3.55-6.27-7.36-6.76-4.15-.54-6.14,1.85-6.75,5.64-1.67,10.49-3.31,20.98-4.91,31.48-.64,4.21,1.25,6.47,5.44,7.38,4.33.94,7.63-.21,8.41-4.58,1.99-11.1,3.5-22.29,5.16-33.15Zm416.76-141.84c.59-5.12-2.38-6.81-6.75-7.42-3.8-.53-6.32.95-6.94,4.66-1.82,10.81-3.56,21.63-5.03,32.49-.67,4.99,1.15,6.79,6.29,7.6,4.29.68,6.78-1.23,7.45-5.35,1.73-10.65,3.32-21.33,4.97-31.99Zm-50.2-110.81c-3.37.24-5.35,2.52-6.86,5.12-1.47,2.54-.34,4.77,1.58,6.68,7.42,7.36,14.77,14.78,22.26,22.07,3.78,3.67,6.86,3.57,10.31.07,3.44-3.5,3.46-6.46-.36-10.28-7.27-7.26-14.69-14.39-22.04-21.57-1.36-1.33-2.91-2.19-4.89-2.09Zm-174.67,16.24c.07-6.3-5.4-9.84-10.8-6.79-9.09,5.13-18.11,10.39-27.06,15.74-4.1,2.45-4.62,5.45-2.19,9.68,2.26,3.94,5.39,4.66,9.22,2.47,9.2-5.28,18.36-10.6,27.52-15.95,1.94-1.13,3.4-2.67,3.31-5.15Zm62.61-18.22c11-1.65,22.01-3.21,32.99-4.98,4.27-.69,5.63-3.6,4.96-7.72-.7-4.27-2.85-6.74-7.42-6.06-10.84,1.6-21.68,3.23-32.49,5.01-3.66.6-5.46,2.93-4.82,6.79.64,3.87,1.7,7.32,6.79,6.96Zm-140.98,416.76c9.85-1.54,21.03-3.15,32.15-5.08,3.87-.67,4.7-3.76,4.19-7.3-.57-3.97-2.41-6.72-6.85-6.11-11.02,1.51-22.02,3.14-33,4.86-4.68.73-4.96,4.24-4.46,7.99.51,3.86,2.51,6.07,7.97,5.64Zm229.22-84.94c0-1.16-.03-2.32,0-3.48.13-3.72.26-7.25-4.31-8.91-4.29-1.55-7.62-.96-10.61,2.6-2.12,2.53-4.5,4.88-7.01,7.02-3.3,2.81-2.82,5.95-1.57,9.45,1.25,3.51,3.65,4.87,7.26,4.56,1.64-.14,3.31,0,4.96-.03,11.99-.16,11.26,1.4,11.27-11.22Z"/>
      <path class="cls-2" d="m475.13,427.8c-.76,8.93-1.37,17.87-2.32,26.78-1.12,10.47-6.59,16.29-17,17.72-8.21,1.13-16.5,1.76-24.77,2.37-4.47.33-8.04-2.81-8.4-6.8-.37-4.21,2.71-7.67,7.57-8.17,7.43-.77,14.87-1.52,22.32-1.96,3.44-.21,5.1-1.45,5.39-4.98.74-8.93,1.76-17.83,2.55-26.75.62-6.97,3.51-10.65,8.28-10.2,4.67.44,6.83,4.17,6.37,10.99-.02.33-.03.66-.05,1,.02,0,.04,0,.06,0Z"/>
    </g>
    <rect class="cls-1" width="511.37" height="511.37"/>
  </g>
</svg>