<?xml version="1.0" encoding="UTF-8"?>
<svg id="Layer_2" data-name="Layer 2" xmlns="http://www.w3.org/2000/svg" viewBox="0 0 511.37 511.37">
  <defs>
    <style>
      .cls-1 {
        fill: none;
      }

      .cls-1, .cls-2 {
        stroke-width: 0px;
      }

      .cls-2 {
        fill: #fff;
      }
    </style>
  </defs>
  <g id="Layer_1-2" data-name="Layer 1">
    <g>
      <path class="cls-2" d="m300.3,144.04c-10.23-1.45-18.94-2.31-27.75-1.66-17.62,1.31-34.35,5.77-50.17,13.74-5.7,2.87-10.12,1.71-12.44-2.79-2.17-4.22-.12-8.48,5.73-11.42,30.6-15.39,62.7-18.76,96.06-11.83,1.14.24,2.33.32,3.41.7,5.43,1.9,8.73.56,12.15-4.71,7.72-11.89,19.57-16.37,33.37-13.83,13.94,2.57,22.6,11.68,25.99,25.21,1.2,4.8,3.33,6.56,7.9,7.73,23.96,6.17,45.16,17.47,62.89,34.96,2.94,2.9,4.05,6.07,2.21,9.87-1.47,3.03-4.12,4.17-7.41,4.01-1.94-.1-3.48-1.01-4.85-2.3-21.69-20.49-47.64-31.62-77.03-35.48-10.38-1.37-20.75-3.05-30.96-5.36-14.48-3.27-26.13,1.61-36.43,11.22-12.87,12.01-21.64,26.78-29.08,42.56-13.01,27.59-18.18,57.2-23.04,86.94-2.33,14.27-4.98,28.49-7.56,42.72-1.42,7.85-1.47,7.74,6.19,9.04,8.68,1.47,17.34,3.05,25.98,4.76,5.65,1.12,8.46,4.71,7.6,9.17-.92,4.75-4.98,7.11-10.8,6.09-11.29-1.97-22.58-3.96-33.84-6.12-2.63-.5-4.83-.18-7.13,1.13-32.34,18.5-67.73,28.07-103.91,35.18-23.73,4.66-47.7,6.74-71.91,6.1-10.19-.27-20.21-1.71-30.18-3.54-9.26-1.7-14.81-7.34-15.44-15.17-.73-8.98,3.25-15.12,12.59-18.55,32.15-11.79,64.31-23.57,96.58-35.05,4.75-1.69,6.78-4.15,7.58-9.01,3.96-24.1,8.09-48.18,12.44-72.22,5.71-31.55,19.6-58.79,43.3-80.73,1.97-1.82,3.86-3.74,6.8-3.73,3.33,0,5.8,1.61,7.17,4.54,1.6,3.42.68,6.51-2.01,9.06-7.4,6.99-14.12,14.55-19.76,23.05q-5.76,8.68,4.52,10.42c4.1.7,8.19,1.43,12.27,2.22,18.88,3.64,31.35,20.81,28.31,38.93-3.12,18.6-20.34,30.67-39.75,27.69-7.89-1.21-15.74-2.66-23.55-4.28-3.95-.82-6.06-.36-6.8,4.33-2.18,13.79-4.74,27.51-7.37,41.22-.8,4.18.3,5.81,4.65,6.54,24.59,4.1,49.14,8.42,73.67,12.87,4.45.81,6.26.17,7.19-4.87,5.82-31.7,9.47-63.84,17.8-95.05,7.47-28,18.45-54.48,36.88-77.31,4.91-6.08,10.63-11.35,17.93-17Zm-92.24,208.87c-1-.7-1.24-.99-1.52-1.04-23.87-4.26-47.74-8.48-71.6-12.75-1.74-.31-3.29.12-4.86.69-33.69,12.31-67.39,24.63-101.07,36.97-1.19.44-3.1.58-2.97,2.15.16,1.92,2.28,1.58,3.62,1.85,10.78,2.17,21.71,3.38,32.67,3.29,36.1-.29,71.4-6.1,105.96-16.47,13.35-4,26.46-8.67,39.78-14.69Zm-23.21-90.51c9.88.41,18.13-6.6,19.47-15.88,1.24-8.6-4.74-17.42-13.59-19.35-8.27-1.8-16.66-3.03-24.96-4.68-2.64-.53-4.03.27-4.97,2.71-3.53,9.21-5.43,18.79-6.91,28.49-.29,1.91.11,3.27,2.27,3.65,9.81,1.72,19.61,3.46,28.69,5.07Zm169.31-135.07c-3.98.52-7.86,1.33-11.09,3.97-.76.62-1.74,1.3-1.59,2.37.17,1.22,1.44,1.22,2.38,1.39,8.01,1.43,16.02,2.83,24.05,4.19.76.13,1.86.2,2.32-.23.88-.82.09-1.84-.37-2.68-3.39-6.17-9.02-8.48-15.69-9.01Z"/>
      <path class="cls-2" d="m501.55,283.88c.46,18.07-4.28,36.36-7.28,54.87-2.32,14.26-4.99,28.47-7.68,42.68-2.25,11.87-10.48,17.73-22.38,15.69-29.96-5.15-59.88-10.51-89.82-15.77-20.46-3.59-40.92-7.14-61.38-10.72-1.96-.34-3.96-.62-5.86-1.2-4.31-1.32-6.7-5.05-6-9.1.73-4.26,4.15-6.78,9.37-6.01,11.18,1.65,22.31,3.61,33.44,5.58,26.5,4.69,53,9.36,79.45,14.3,4.59.86,6.16-.32,6.74-4.84.98-7.57,2.44-15.1,3.93-22.59,1.82-9.12,9.55-14.36,18.78-12.86,7.22,1.17,14.42,2.42,21.62,3.71,2.27.41,3.98.26,4.38-2.49,2.45-16.92,7.12-33.54,7.15-50.78.04-22.55-5.15-43.79-16.29-63.49-.41-.72-.82-1.45-1.21-2.18-3.14-5.77-2.49-10.02,1.91-12.47,4.27-2.38,8.37-.67,11.72,5.03,13.01,22.14,19.73,45.99,19.42,72.64Zm-35.44,97.64c3.46.62,4.96-1.18,5.48-4.29,1.11-6.53,2.12-13.09,3.4-19.59.61-3.09-.68-4.19-3.45-4.62-6.07-.92-12.13-1.87-18.16-2.99-2.8-.52-4.03.65-4.46,3.21-1.22,7.19-2.44,14.39-3.71,21.57-.35,1.97.05,3.11,2.29,3.47,6.22.99,12.42,2.14,18.62,3.22Z"/>
    </g>
    <rect class="cls-1" width="511.37" height="511.37"/>
  </g>
</svg>