<svg width="48" height="48" viewBox="0 0 48 48" fill="none" xmlns="http://www.w3.org/2000/svg">
<g clip-path="url(#clip0_10279_55166)">
<path d="M28.7934 8.45345C28.3117 7.60695 27.6144 6.9031 26.7725 6.41348C25.9306 5.92386 24.974 5.66594 24 5.66594C23.0261 5.66594 22.0695 5.92386 21.2276 6.41348C20.3856 6.9031 19.6884 7.60695 19.2067 8.45345L4.69003 34.3168C4.22906 35.1284 3.99075 36.0474 3.99924 36.9808C4.00773 37.9142 4.26271 38.8287 4.73837 39.6318C5.22101 40.4604 5.91408 41.1466 6.74736 41.6211C7.58064 42.0955 8.52452 42.3413 9.48337 42.3335H38.5167C39.4755 42.3413 40.4194 42.0955 41.2527 41.6211C42.086 41.1466 42.7791 40.4604 43.2617 39.6318C43.7374 38.8287 43.9923 37.9142 44.0008 36.9808C44.0093 36.0474 43.771 35.1284 43.31 34.3168L28.7934 8.45345ZM40.385 37.9535C40.1931 38.2768 39.9194 38.5438 39.5913 38.7275C39.2633 38.9113 38.8926 39.0053 38.5167 39.0001H9.48337C9.10693 39.0048 8.73593 38.91 8.40787 38.7254C8.07981 38.5407 7.80632 38.2727 7.61503 37.9485C7.43372 37.6471 7.3364 37.3027 7.33317 36.951C7.32995 36.5993 7.42094 36.2531 7.5967 35.9485L22.1134 10.0835C22.319 9.77091 22.599 9.51433 22.9283 9.3368C23.2577 9.15926 23.6259 9.06631 24 9.06631C24.3742 9.06631 24.7424 9.15926 25.0717 9.3368C25.401 9.51433 25.6811 9.77091 25.8867 10.0835L40.4034 35.9468C40.5794 36.2516 40.6706 36.5981 40.6674 36.9501C40.6642 37.3022 40.5667 37.6469 40.385 37.9485V37.9535Z" fill="white"/>
<path d="M24 15.6668C23.558 15.6668 23.1341 15.8424 22.8215 16.1549C22.509 16.4675 22.3334 16.8914 22.3334 17.3335V27.3335C22.3334 27.7755 22.509 28.1994 22.8215 28.512C23.1341 28.8245 23.558 29.0001 24 29.0001C24.4421 29.0001 24.866 28.8245 25.1785 28.512C25.4911 28.1994 25.6667 27.7755 25.6667 27.3335V17.3335C25.6667 16.8914 25.4911 16.4675 25.1785 16.1549C24.866 15.8424 24.4421 15.6668 24 15.6668Z" fill="white"/>
<path d="M24 35.6668C24.9205 35.6668 25.6667 34.9206 25.6667 34.0001C25.6667 33.0796 24.9205 32.3335 24 32.3335C23.0796 32.3335 22.3334 33.0796 22.3334 34.0001C22.3334 34.9206 23.0796 35.6668 24 35.6668Z" fill="white"/>
</g>
<defs>
<clipPath id="clip0_10279_55166">
<rect width="40" height="40" fill="white" transform="translate(4 4.00012)"/>
</clipPath>
</defs>
</svg>
