<svg width="17" height="16" viewBox="0 0 17 16" fill="none" xmlns="http://www.w3.org/2000/svg">
<path d="M8.35994 14.1733C5.39994 14.1733 2.98661 11.76 2.98661 8.79333V6.64667C2.74661 6.66 2.49327 6.67333 2.22661 6.67333C1.88661 6.67333 1.61994 6.40667 1.61994 6.06667V4.02C1.61994 1.80667 3.41994 0 5.62661 0H9.61994C9.65994 0 9.69327 0 9.71994 0C11.9333 0 13.7333 1.8 13.7333 4.00667V6.06C13.7333 6.06 13.7333 6.12 13.7333 6.15333V8.79333C13.7333 11.76 11.3199 14.1733 8.35994 14.1733ZM4.19327 8.79333C4.19327 11.0933 6.05994 12.96 8.35327 12.96C10.6466 12.96 12.5133 11.0933 12.5133 8.79333V6.61333C11.2266 6.42667 10.0799 5.64667 9.44661 4.50667L8.27327 5.14C6.99994 5.82667 5.62661 6.28667 4.19327 6.50667V8.79333ZM5.62661 1.21333C4.08661 1.21333 2.83327 2.47333 2.83327 4.02V5.44667C4.53994 5.35333 6.21994 4.88667 7.70661 4.08L9.43327 3.14667C9.51327 3.1 9.61994 3.07333 9.72661 3.07333C9.78661 3.07333 9.85327 3.08 9.91327 3.1C10.0799 3.16 10.2066 3.27333 10.2733 3.42L10.3599 3.63333C10.7466 4.54667 11.5599 5.2 12.5266 5.4V4.01333C12.5266 2.51333 11.3133 1.26667 9.81327 1.22C9.77327 1.22 9.73994 1.22 9.71994 1.22H5.62661V1.21333Z" fill="#CFCFD0"/>
<path d="M8.36661 11.7867C7.79327 11.7867 7.26661 11.5267 6.87994 11.0533C6.77994 10.9267 6.72661 10.7733 6.74661 10.6133C6.75994 10.4533 6.83994 10.3067 6.96661 10.2067C7.07327 10.12 7.21327 10.0667 7.35327 10.0667C7.53327 10.0667 7.70661 10.1467 7.81994 10.2867C7.96661 10.4667 8.16661 10.5667 8.37327 10.5667C8.57994 10.5667 8.77994 10.4667 8.92661 10.2867C9.03994 10.1467 9.21327 10.0667 9.39327 10.0667C9.53327 10.0667 9.66661 10.1133 9.77994 10.2067C9.90661 10.3067 9.97994 10.4533 9.99994 10.6133C10.0133 10.7733 9.96661 10.9333 9.86661 11.0533C9.47994 11.5267 8.94661 11.7867 8.37994 11.7867H8.36661Z" fill="#CFCFD0"/>
<path d="M8.43994 16C5.23327 16 2.58661 14.0667 1.53327 10.96C1.42661 10.6467 1.59327 10.3 1.91327 10.1933C1.97994 10.1733 2.03994 10.16 2.10661 10.16C2.36661 10.16 2.59994 10.3267 2.67994 10.5733C3.55994 13.1733 5.77327 14.7933 8.43994 14.7933C11.1066 14.7933 13.0466 13.2267 14.1133 10.5C14.1999 10.2667 14.4266 10.1133 14.6799 10.1133C14.7533 10.1133 14.8266 10.1267 14.8999 10.1533C15.0533 10.2133 15.1666 10.3267 15.2333 10.4733C15.2999 10.62 15.2999 10.7867 15.2399 10.9333C13.9866 14.1533 11.5066 16 8.43994 16Z" fill="#CFCFD0"/>
</svg>
