<svg width="16" height="16" viewBox="0 0 16 16" fill="none" xmlns="http://www.w3.org/2000/svg">
<g clip-path="url(#clip0_15331_65916)">
<path fill-rule="evenodd" clip-rule="evenodd" d="M0.0668945 0.666406C0.0668945 0.335645 0.336133 0.0664062 0.666894 0.0664062H3.10023C3.43099 0.0664062 3.70023 0.335645 3.70023 0.666406C3.70023 0.997168 3.43099 1.26641 3.10023 1.26641H1.26689V3.09974C1.26689 3.4305 0.997656 3.69974 0.666894 3.69974C0.336133 3.69974 0.0668945 3.4305 0.0668945 3.09974V0.666406Z" fill="#fff"/>
<path fill-rule="evenodd" clip-rule="evenodd" d="M0.0668945 12.8997C0.0668945 12.569 0.336133 12.2997 0.666894 12.2997C0.997656 12.2997 1.26689 12.569 1.26689 12.8997V14.7331H3.10023C3.43099 14.7331 3.70023 15.0023 3.70023 15.3331C3.70023 15.6638 3.43099 15.9331 3.10023 15.9331H0.666894C0.336133 15.9331 0.0668945 15.6638 0.0668945 15.3331V12.8997Z" fill="#fff"/>
<path fill-rule="evenodd" clip-rule="evenodd" d="M12.3002 0.666406C12.3002 0.335645 12.5695 0.0664062 12.9002 0.0664062H15.3336C15.6643 0.0664062 15.9336 0.335645 15.9336 0.666406V3.09974C15.9336 3.4305 15.6643 3.69974 15.3336 3.69974C15.0028 3.69974 14.7336 3.4305 14.7336 3.09974V1.26641H12.9002C12.5695 1.26641 12.3002 0.997167 12.3002 0.666406Z" fill="#fff"/>
<path fill-rule="evenodd" clip-rule="evenodd" d="M14.7336 12.8997C14.7336 12.569 15.0028 12.2997 15.3336 12.2997C15.6643 12.2997 15.9336 12.569 15.9336 12.8997V15.3331C15.9336 15.6638 15.6643 15.9331 15.3336 15.9331H12.9002C12.5695 15.9331 12.3002 15.6638 12.3002 15.3331C12.3002 15.0023 12.5695 14.7331 12.9002 14.7331H14.7336V12.8997Z" fill="#fff"/>
<path d="M8.60689 14.3797C5.92689 14.3797 3.74689 12.1997 3.74689 9.51974V7.66641C3.54023 7.67974 3.34023 7.68641 3.13356 7.68641C2.80023 7.68641 2.53356 7.41974 2.53356 7.08641V5.25974C2.53356 3.25307 4.16689 1.61974 6.17356 1.61974H9.82689C11.8336 1.61974 13.4669 3.25307 13.4669 5.25974V9.51974C13.4669 12.1997 11.2869 14.3797 8.60689 14.3797ZM4.94689 9.51974C4.94689 11.5397 6.58689 13.1797 8.60689 13.1797C10.6269 13.1797 12.2669 11.5397 12.2669 9.51974V7.63974C11.1269 7.45974 10.1402 6.77974 9.56023 5.77974L8.56689 6.31307C7.42023 6.92641 6.20023 7.33974 4.94689 7.53307V9.51974ZM6.17356 2.81974C4.82689 2.81974 3.73356 3.91307 3.73356 5.25974V6.46641C3.90689 6.45307 4.08023 6.43974 4.24689 6.41974C4.26023 6.41307 4.31356 6.41307 4.34689 6.41307C5.62023 6.25974 6.86023 5.87307 8.00023 5.25974L9.54023 4.42641C9.64023 4.37974 9.73356 4.35974 9.82689 4.35974C9.88689 4.35974 9.95356 4.36641 10.0136 4.38641C10.1936 4.45307 10.3202 4.57974 10.3802 4.73307L10.4536 4.89974C10.7869 5.66641 11.4602 6.22641 12.2669 6.41974V5.26641C12.2669 3.91974 11.1736 2.82641 9.82689 2.82641H6.17356V2.81974Z" fill="#fff"/>
<path d="M8.53356 12.1131C8.00689 12.1131 7.52023 11.8731 7.16023 11.4397C7.06023 11.3131 7.00689 11.1597 7.02689 10.9997C7.04689 10.8397 7.12023 10.6931 7.24023 10.5931C7.34689 10.5064 7.48023 10.4531 7.62023 10.4531C7.80023 10.4531 7.96689 10.5331 8.08023 10.6731C8.20023 10.8197 8.36023 10.8997 8.53356 10.8997C8.70689 10.8997 8.86023 10.8197 8.98689 10.6731C9.10023 10.5331 9.26689 10.4531 9.44689 10.4531C9.58689 10.4531 9.72023 10.4997 9.82689 10.5931C9.94689 10.6931 10.0269 10.8397 10.0402 10.9997C10.0536 11.1597 10.0069 11.3131 9.90689 11.4397C9.54689 11.8731 9.06023 12.1131 8.53356 12.1131Z" fill="#fff"/>
<path d="M8.53356 11.8464C8.08689 11.8464 7.67356 11.6397 7.36689 11.2664C7.24689 11.1264 7.26689 10.9131 7.41356 10.7997C7.55356 10.6797 7.76689 10.6997 7.88023 10.8464C8.24023 11.2797 8.83356 11.2797 9.19356 10.8464C9.31356 10.7064 9.52023 10.6864 9.66023 10.7997C9.80023 10.9197 9.82023 11.1264 9.70689 11.2664C9.40023 11.6397 8.98689 11.8464 8.54023 11.8464H8.53356Z" fill="#fff"/>
</g>
<defs>
<clipPath id="clip0_15331_65916">
<rect width="16" height="16" fill="white"/>
</clipPath>
</defs>
</svg>
