<svg width="17" height="16" viewBox="0 0 17 16" fill="none" xmlns="http://www.w3.org/2000/svg">
<g clip-path="url(#clip0_16634_4707)">
<path d="M8.83329 16C5.48663 16 2.75996 13.2867 2.75996 9.94667V9.77333H1.77329C1.43329 9.77333 1.16663 9.50667 1.16663 9.16667C1.16663 8.82667 1.43996 8.56 1.77329 8.56H2.75996V7.4C2.41996 7.42 2.10663 7.43333 1.79996 7.43333C1.46663 7.43333 1.19329 7.16 1.19329 6.82667V4.49333C1.19329 2.02 3.21996 0 5.70663 0H10.3933C12.88 0 14.9066 2.02 14.9066 4.5V8.56667H15.8933C16.2266 8.56667 16.5 8.84 16.5 9.17333C16.5 9.50667 16.2333 9.78 15.8933 9.78H14.9066V9.95333C14.9066 13.2867 12.1866 16.0067 8.83329 16.0067V16ZM3.96663 9.94667C3.96663 12.6133 6.14663 14.7867 8.82663 14.7867C11.5066 14.7867 13.6866 12.6133 13.6866 9.94667V9.77333H3.96663V9.94667ZM13.6933 8.56667V7.4C12.1733 7.20667 10.84 6.29333 10.1133 4.94667L8.69329 5.70667C7.21996 6.5 5.63329 7.02667 3.96663 7.27333V8.56667H13.6933ZM5.70663 1.20667C3.88663 1.20667 2.40663 2.68667 2.40663 4.5V6.22C2.69329 6.20667 2.97329 6.18667 3.26663 6.14667C4.95996 5.96 6.63996 5.44 8.12663 4.64L10.1133 3.58C10.1933 3.53333 10.2933 3.50667 10.3933 3.50667C10.4666 3.50667 10.5333 3.52 10.6066 3.54667C10.7533 3.59333 10.8933 3.72 10.9533 3.88L11.0466 4.09333C11.5266 5.2 12.5266 5.98 13.6933 6.18V4.5C13.6933 2.68667 12.2133 1.21333 10.3933 1.21333H5.70663V1.20667Z" fill="#000"/>
<path d="M8.82663 13.2733C8.19996 13.2733 7.61996 12.9867 7.19329 12.4733C6.97996 12.22 7.01329 11.8333 7.27329 11.62C7.37996 11.5333 7.51996 11.48 7.65996 11.48C7.83996 11.48 8.00662 11.56 8.12662 11.7C8.31329 11.9267 8.56663 12.0533 8.83329 12.0533C9.09996 12.0533 9.35329 11.9267 9.53996 11.7067C9.65329 11.5667 9.82663 11.4867 10.0066 11.4867C10.1466 11.4867 10.2866 11.5333 10.3933 11.6267C10.52 11.7333 10.5933 11.88 10.6133 12.04C10.6266 12.2 10.58 12.36 10.4733 12.48C10.0466 13 9.45996 13.28 8.83996 13.28L8.82663 13.2733Z" fill="#000"/>
</g>
<defs>
<clipPath id="clip0_16634_4707">
<rect width="16" height="16" fill="000" transform="translate(0.5)"/>
</clipPath>
</defs>
</svg>
