<?xml version="1.0" encoding="UTF-8"?>
<svg id="Layer_2" data-name="Layer 2" xmlns="http://www.w3.org/2000/svg" viewBox="0 0 511.37 511.37">
  <defs>
    <style>
      .cls-1 {
        fill: none;
      }

      .cls-1, .cls-2 {
        stroke-width: 0px;
      }

      .cls-2 {
        fill: #fff;
      }
    </style>
  </defs>
  <g id="Layer_1-2" data-name="Layer 1">
    <g>
      <path class="cls-2" d="m399.86,216.47c-.91-1.69-2.68-1.98-4-2.88-3.92-2.69-5.13-6.61-3.12-10.31,2.12-3.92,6.4-5.36,10.71-3.02,7.74,4.21,15.38,8.62,22.89,13.23,4.27,2.63,8.63,3.86,13.67,3.68,7.42-.28,14.85-.07,22.5-.86-9.37-5.55-18.73-11.13-28.12-16.65-27.8-16.37-55.72-32.54-83.37-49.16-11.35-6.82-23.2-10.37-36.45-9.88-10.3.38-20.62.04-30.94.1-4.86.03-5.94,1.64-4.04,6.21,2.88,6.94,8.5,10.05,15.73,10.22,8.65.2,17.3.19,25.95.02,5.34-.11,10.17,1.18,14.74,3.85,11.35,6.61,22.74,13.16,34.11,19.74,1.15.67,2.29,1.36,3.38,2.13,4.35,3.09,5.52,6.93,3.28,10.65-2.42,4.04-6.5,5.14-11.23,2.47-12.02-6.79-23.94-13.75-35.84-20.75-2.96-1.74-5.95-2.68-9.42-2.62-8.65.14-17.3.11-25.95.02-16.86-.18-30.52-13.15-31.64-29.91-.57-8.53,5.46-16.93,13.94-17.18,18.26-.54,36.58-1.38,54.81.54,8.03.84,15.4,4,22.36,8.1,46.14,27.18,92.27,54.38,138.45,81.49,5.08,2.98,7.63,6.77,7.41,12.91-.37,10.47-.19,20.96-.06,31.43.05,3.66-1.22,6.46-4.06,8.62-2.12,1.61-4.09,3.52-6.43,4.71-13.57,6.93-17.84,18.47-17.75,32.95.06,8.92-.76,17.91-2.62,26.74-6.29,29.81-32.67,51.91-63.04,52.06-18.11.09-36.3,1.57-54.32-.93-41.47-5.75-73.93-39.12-78.79-80.6-.62-5.27-.68-10.61-.99-15.92-.52-8.84-7.19-15.29-15.84-15.32-8.67-.03-15.51,6.37-15.95,15.19-.63,12.48-1.37,24.92-5.99,36.73-12.01,30.67-33.69,51.06-65.92,58.15-24.83,5.46-50.48,5.24-75.33.68-30.11-5.52-50.24-31.47-51.71-62.22-.44-9.12-1.24-18.23-2.08-27.33-.58-6.37-4.05-11.13-9.13-14.81-4.44-3.22-8.9-6.43-13.34-9.65-3.19-2.32-4.62-5.34-4.55-9.4.18-10.31.35-20.64-.05-30.93-.25-6.38,2.51-10.16,7.75-13.22,29.16-17,58.25-34.15,87.34-51.28,17.05-10.04,34.06-20.16,51.12-30.19,9.96-5.86,20.7-8.91,32.31-8.85,13.47.07,26.95-.04,40.42.03,12.8.07,19.81,8.73,17.42,21.37-2.88,15.22-15.48,25.9-30.92,26.07-8.98.1-17.96.07-26.95,0-2.57-.02-4.89.53-7.12,1.83-23.29,13.53-46.61,27.03-69.92,40.54-.55.32-1.02.79-2.69,2.09,3.42,0,5.64-.05,7.86.01,5.85.17,9.48,3.31,9.4,8.08-.07,4.51-3.59,7.38-9.4,7.39-28.27.04-56.55.02-84.82.02-7.04,0-6.35.09-7.21,7.12-1.48,12.22,1.95,20.8,13.17,27.4,12.11,7.13,15.08,19.95,15.75,33.28.38,7.63,1.09,15.24,1.67,22.86,1.93,25.24,21.97,44.81,46.45,45.92,19.9.9,39.96,2.31,59.7-1.51,34.67-6.7,60.35-37.94,60.5-73.26.05-11.3,2.23-21.57,10.85-29.44,10-9.12,21.78-10.79,33.89-5.61,12.87,5.5,19.16,16.36,19.29,30.12.13,13.39,2.1,26.24,8.41,38.08,12.98,24.36,33.16,38.63,60.78,41.3,18.05,1.74,36.22,1.66,54.29-.01,22.02-2.03,40.55-20.53,43.04-42.67,1.23-10.89,1.92-21.84,2.87-32.76.98-11.27,5.66-21.03,15.35-26.66,10.62-6.18,14.75-14.29,12.62-26.07-.17-.97-.13-2,0-2.99.49-3.95-1.24-5.16-5.13-5.15-49.07.1-98.13.03-147.2.13-7.39.01-14.59,1.6-21.09,5.27-10.89,6.15-22.36,7.12-34.26,4.08-14.32-3.66-28.58-3.71-42.91-.06-11.89,3.03-23.35,2.28-34.27-3.91-6.95-3.93-14.64-5.35-22.56-5.43-7.82-.07-15.64.06-23.45-.08-4.93-.09-8.28-3.27-8.34-7.46-.05-4.03,3.05-7.7,7.53-7.8,11.3-.25,22.63-.86,33.89.41,7.33.83,14.24,3.35,20.71,6.92,6.43,3.55,13.25,4.56,20.26,2.67,18.41-4.96,36.74-4.96,55.15,0,6.82,1.84,13.52.96,19.81-2.46,10.16-5.52,21-7.95,32.6-7.8,19.63.24,39.26.08,58.88.03,1.73,0,3.59.57,5.29-.59Zm-350.26-.59c.04.4.09.81.13,1.21,7.41,0,14.83-.18,22.24.07,4.69.16,8.7-1.1,12.72-3.44,29.98-17.52,60.04-34.89,90.05-52.36,4.87-2.83,9.93-4.35,15.63-4.22,8.64.2,17.28.21,25.92-.02,7.01-.19,12.49-3.24,15.4-9.93,2.07-4.77.98-6.47-4.1-6.49-10.47-.05-20.95.26-31.4-.09-12.9-.43-24.47,3-35.47,9.69-19.15,11.67-38.56,22.91-57.88,34.3-17.73,10.45-35.48,20.86-53.22,31.28Z"/>
      <path class="cls-2" d="m137.37,241.01c14.96,0,29.91-.11,44.87.03,22.34.2,38.31,19.15,35.13,41.36-1.34,9.36-1.85,18.84-4.24,28.04-7.52,28.97-34.22,50.22-64.15,50.77-14.29.26-28.58.25-42.87.02-21.74-.34-39.51-17.33-41.22-39.09-1.29-16.55-2.61-33.09-3.78-49.65-1.15-16.27,12.68-31.15,29.4-31.41,15.62-.24,31.24-.05,46.86-.05v-.02Zm-.46,15.46c-14.13,0-28.27-.01-42.4,0-12.49.02-17.96,5.31-17.31,17.59.82,15.42,1.81,30.85,3.36,46.21,1.58,15.72,11.54,25.07,26.79,25.43,13.63.32,27.28.44,40.9-.05,26.19-.95,46.25-18.59,50.89-44.4,1.23-6.86,1.84-13.83,2.66-20.76,1.7-14.42-6.57-23.93-20.99-24.01-14.63-.08-29.26-.02-43.89-.02Z"/>
      <path class="cls-2" d="m352.83,241.01c8.65,0,17.29-.04,25.94.01,5.96.04,9.69,3.03,9.76,7.65.07,4.64-3.67,7.77-9.6,7.78-15.96.05-31.92-.02-47.88.04-14.86.05-23.2,9.41-21.47,24.02.78,6.6,1.41,13.22,2.45,19.78,4.19,26.31,24.84,44.6,51.61,45.4,13.29.4,26.6.29,39.9.05,15.56-.28,25.69-9.56,27.29-25.47,1.55-15.53,2.54-31.12,3.37-46.71.6-11.43-4.99-16.95-16.34-17.09-1.66-.02-3.37.09-4.97-.25-3.84-.83-6.28-3.29-6.35-7.26-.07-4.19,2.34-7.09,6.45-7.67,22.63-3.19,37.27,12.28,37.22,30.81-.03,8.95-1.14,17.89-1.87,26.83-.75,9.1-1.11,18.27-2.56,27.26-3.05,18.85-17.63,33.32-36.67,34.63-18.19,1.24-36.6,1.87-54.77-.5-30.46-3.98-54.34-28.87-58-59.37-.81-6.76-1.7-13.51-2.62-20.25-2.69-19.62,13.42-38.98,33.19-39.59,8.64-.26,17.29-.04,25.94-.04,0-.02,0-.04,0-.05Z"/>
    </g>
    <rect class="cls-1" width="511.37" height="511.37"/>
  </g>
</svg>