<svg width="32" height="41" viewBox="0 0 32 41" fill="none" xmlns="http://www.w3.org/2000/svg">
<path d="M29.5023 19.7478C29.5023 22.8855 29.6804 26.0354 29.4593 29.1607C29.1646 33.3668 27.2059 36.7009 23.399 38.7517C21.956 39.5315 20.3534 39.814 18.7324 39.9613C16.7368 40.1455 14.7658 40.078 12.844 39.421C10.173 38.5061 8.15286 36.7623 6.54413 34.4966C4.74506 31.9607 3.65209 29.1055 2.85387 26.1336C2.4302 24.5617 1.82846 23.0697 1.14076 21.6083C0.520601 20.2759 0.92585 18.8452 2.13547 18.1759C3.36965 17.4944 4.81874 17.8935 5.5924 19.1645C6.92482 21.3566 8.23882 23.567 9.55896 25.7714C9.63264 25.8942 9.70018 26.017 9.78001 26.1336C10.0625 26.5266 10.5107 26.631 10.9037 26.4038C11.2844 26.1766 11.4133 25.7161 11.1984 25.2863C11.0817 25.0468 10.9344 24.8196 10.7993 24.5863C10.1484 23.4749 9.48528 22.3635 8.8467 21.2399C8.74232 21.0557 8.66863 20.8162 8.66863 20.6013C8.65635 15.7751 8.66863 10.9428 8.65635 6.1166C8.65021 4.52015 10.0932 3.75876 11.487 4.28068C12.1747 4.53857 12.5615 5.15259 12.5677 5.90783C12.5861 9.91123 12.6045 13.9146 12.6168 17.9242C12.6168 18.0777 12.6106 18.2373 12.6291 18.3908C12.6843 18.7961 13.0589 19.1092 13.4641 19.097C13.8632 19.0847 14.2009 18.79 14.2501 18.3908C14.2746 18.2066 14.2685 18.0224 14.2685 17.8382C14.2562 12.6006 14.2685 7.35691 14.2194 2.11933C14.2071 0.915853 15.0606 -0.183241 16.657 0.0930673C17.5596 0.252712 18.1614 0.946554 18.1675 1.87986C18.1798 3.37193 18.1675 4.864 18.1675 6.35606C18.1675 10.4332 18.1675 14.5102 18.1675 18.5812C18.1675 18.79 18.1736 19.011 18.2412 19.2075C18.3579 19.5452 18.6219 19.7233 18.9903 19.7294C19.3587 19.7294 19.6289 19.5698 19.7578 19.232C19.8315 19.0417 19.8438 18.8145 19.8438 18.6057C19.8438 14.1725 19.8438 9.74545 19.8438 5.31223C19.8438 4.31752 20.5192 3.55614 21.4771 3.45789C22.6253 3.33509 23.5033 3.88157 23.7244 4.87628C23.7735 5.09732 23.7735 5.32451 23.7735 5.5517C23.7735 10.3226 23.7735 15.0936 23.7735 19.8645C23.7735 20.018 23.7674 20.1776 23.7919 20.3311C23.8595 20.7364 24.191 21.0127 24.5963 21.0188C25.0077 21.0188 25.3331 20.7732 25.4129 20.3618C25.4498 20.1838 25.4498 19.9934 25.4498 19.8092C25.4621 16.6593 25.4621 13.5032 25.4805 10.3533C25.4866 8.97179 26.6962 8.03848 27.9918 8.39461C28.876 8.63408 29.4102 9.38932 29.4225 10.4209C29.447 13.1594 29.4593 15.9041 29.4777 18.6426C29.4777 19.011 29.4777 19.3794 29.4777 19.7478H29.5023Z" fill="white"/>
<path fill-rule="evenodd" clip-rule="evenodd" d="M25.5697 16.6469C25.5697 15.6199 26.4022 14.7873 27.4292 14.7873H27.4458C28.4728 14.7873 29.3054 15.6199 29.3054 16.6469C29.3054 17.6739 28.4728 18.5064 27.4458 18.5064H27.4292C26.4022 18.5064 25.5697 17.6739 25.5697 16.6469Z" fill="black"/>
<path fill-rule="evenodd" clip-rule="evenodd" d="M23.7276 16.6469C23.7276 14.6025 25.3849 12.9453 27.4292 12.9453H27.4458C29.4902 12.9453 31.1474 14.6025 31.1474 16.6469C31.1474 18.6912 29.4902 20.3485 27.4458 20.3485H27.4292C25.3849 20.3485 23.7276 18.6912 23.7276 16.6469ZM27.4292 14.7873C26.4022 14.7873 25.5697 15.6199 25.5697 16.6469C25.5697 17.6739 26.4022 18.5064 27.4292 18.5064H27.4458C28.4728 18.5064 29.3054 17.6739 29.3054 16.6469C29.3054 15.6199 28.4728 14.7873 27.4458 14.7873H27.4292Z" fill="white"/>
</svg>
