<svg width="32" height="41" viewBox="0 0 32 41" fill="none" xmlns="http://www.w3.org/2000/svg">
<path d="M29.5018 19.7478C29.5018 22.8855 29.6799 26.0354 29.4588 29.1607C29.1641 33.3668 27.2054 36.7009 23.3985 38.7517C21.9555 39.5315 20.3529 39.814 18.7319 39.9613C16.7364 40.1455 14.7654 40.078 12.8435 39.421C10.1725 38.5061 8.15237 36.7623 6.54364 34.4966C4.74457 31.9607 3.65161 29.1055 2.85338 26.1336C2.42971 24.5617 1.82797 23.0697 1.14027 21.6083C0.520112 20.2759 0.925362 18.8452 2.13498 18.1759C3.36916 17.4944 4.81825 17.8935 5.59191 19.1645C6.92433 21.3566 8.23833 23.567 9.55847 25.7714C9.63215 25.8942 9.6997 26.017 9.77952 26.1336C10.062 26.5266 10.5102 26.631 10.9032 26.4038C11.2839 26.1766 11.4128 25.7161 11.1979 25.2863C11.0812 25.0468 10.9339 24.8196 10.7988 24.5863C10.1479 23.4749 9.4848 22.3635 8.84622 21.2399C8.74183 21.0557 8.66815 20.8162 8.66815 20.6013C8.65586 15.7751 8.66814 10.9428 8.65586 6.1166C8.64972 4.52015 10.0927 3.75876 11.4865 4.28068C12.1742 4.53857 12.561 5.15259 12.5672 5.90783C12.5856 9.91123 12.604 13.9146 12.6163 17.9242C12.6163 18.0777 12.6101 18.2373 12.6286 18.3908C12.6838 18.7961 13.0584 19.1092 13.4636 19.097C13.8627 19.0847 14.2005 18.79 14.2496 18.3908C14.2741 18.2066 14.268 18.0224 14.268 17.8382C14.2557 12.6006 14.268 7.35691 14.2189 2.11933C14.2066 0.915853 15.0601 -0.183241 16.6565 0.0930673C17.5591 0.252712 18.1609 0.946554 18.167 1.87986C18.1793 3.37193 18.167 4.864 18.167 6.35606C18.167 10.4332 18.167 14.5102 18.167 18.5812C18.167 18.79 18.1732 19.011 18.2407 19.2075C18.3574 19.5452 18.6214 19.7233 18.9898 19.7294C19.3582 19.7294 19.6284 19.5698 19.7573 19.232C19.831 19.0417 19.8433 18.8145 19.8433 18.6057C19.8433 14.1725 19.8433 9.74545 19.8433 5.31223C19.8433 4.31752 20.5187 3.55614 21.4766 3.45789C22.6248 3.33509 23.5029 3.88157 23.7239 4.87628C23.773 5.09732 23.773 5.32451 23.773 5.5517C23.773 10.3226 23.773 15.0936 23.773 19.8645C23.773 20.018 23.7669 20.1776 23.7914 20.3311C23.859 20.7364 24.1906 21.0127 24.5958 21.0188C25.0072 21.0188 25.3326 20.7732 25.4125 20.3618C25.4493 20.1838 25.4493 19.9934 25.4493 19.8092C25.4616 16.6593 25.4616 13.5032 25.48 10.3533C25.4861 8.97179 26.6958 8.03848 27.9913 8.39461C28.8755 8.63408 29.4097 9.38932 29.422 10.4209C29.4466 13.1594 29.4588 15.9041 29.4773 18.6426C29.4773 19.011 29.4773 19.3794 29.4773 19.7478H29.5018Z" fill="#282828"/>
<path fill-rule="evenodd" clip-rule="evenodd" d="M25.5692 16.6469C25.5692 15.6199 26.4018 14.7873 27.4288 14.7873H27.4454C28.4724 14.7873 29.3049 15.6199 29.3049 16.6469C29.3049 17.6739 28.4724 18.5064 27.4454 18.5064H27.4288C26.4018 18.5064 25.5692 17.6739 25.5692 16.6469Z" fill="white"/>
<path fill-rule="evenodd" clip-rule="evenodd" d="M23.7272 16.6469C23.7272 14.6025 25.3844 12.9453 27.4288 12.9453H27.4454C29.4897 12.9453 31.147 14.6025 31.147 16.6469C31.147 18.6912 29.4897 20.3485 27.4454 20.3485H27.4288C25.3844 20.3485 23.7272 18.6912 23.7272 16.6469ZM27.4288 14.7873C26.4018 14.7873 25.5692 15.6199 25.5692 16.6469C25.5692 17.6739 26.4018 18.5064 27.4288 18.5064H27.4454C28.4724 18.5064 29.3049 17.6739 29.3049 16.6469C29.3049 15.6199 28.4724 14.7873 27.4454 14.7873H27.4288Z" fill="#282828"/>
</svg>
