<svg width="96" height="96" viewBox="0 0 96 96" fill="none" xmlns="http://www.w3.org/2000/svg">
<g clip-path="url(#clip0_10279_55230)">
<path d="M78.4121 64.9556L74.6886 64.3919C71.8535 63.9626 69.66 61.7693 69.2308 58.9341L68.6919 55.375V45.6293C68.8648 39.0359 66.7351 32.461 60.2217 28.6672C58.6705 25.4358 55.3659 23.1995 51.5484 23.1995H44.4472C41.412 23.1995 38.5463 24.6965 36.7175 27.1307C34.9652 25.9218 33.746 24.0169 33.4221 21.8778L32.7721 17.5848C32.413 15.4713 29.4223 15.4727 29.0639 17.5848L28.4139 21.8778C27.9001 25.2716 25.2746 27.8971 21.8808 28.4109L17.5879 29.0609C15.4743 29.42 15.4757 32.4107 17.5879 32.7691L21.8808 33.4191C24.8934 33.8752 27.2992 35.9958 28.1614 38.8403C27.6073 40.8833 27.3039 43.2704 27.3039 45.6292V74.2229C27.3039 77.408 29.8951 79.9994 33.0803 79.9994H62.9154C63.8016 79.9994 64.6628 79.7877 65.4399 79.4037C66.4821 80.5464 68.442 79.9556 68.667 78.409L69.2308 74.6855C69.6601 71.8503 71.8535 69.6569 74.6886 69.2277L78.4121 68.6639C80.5257 68.3047 80.5243 65.314 78.4121 64.9556ZM51.5486 26.9501C54.7822 26.9501 57.4128 29.5807 57.4128 32.8143V49.8493C57.4128 50.9671 57.2135 52.0391 56.8487 53.0319C51.9006 49.642 44.0834 49.5237 39.0587 52.7712C38.7519 51.8521 38.5831 50.8702 38.5831 49.8492V33.7557C39.0234 33.6053 39.4816 33.4909 39.9554 33.4192L44.2484 32.7693C46.362 32.4101 46.3606 29.4194 44.2484 29.061L40.5373 28.499C41.6214 27.5304 43.0225 26.9501 44.4473 26.9501H51.5486ZM54.8669 56.2136C53.1797 57.9907 50.7978 59.1024 48.1597 59.1024H47.8362C45.1024 59.1024 42.6427 57.9098 40.9473 56.0186C44.8112 53.47 51.0835 53.5432 54.8669 56.2136ZM26.1096 30.915C28.1252 29.8577 29.8697 28.1111 30.9246 26.0942C32.0024 28.1257 33.675 29.8218 35.7313 30.9126C33.7179 31.9678 31.9742 33.7105 30.9183 35.7236C29.863 33.7121 28.1211 31.9703 26.1096 30.915ZM62.9156 76.2488H33.0803C31.9633 76.2488 31.0544 75.34 31.0544 74.2229V45.8336C31.9215 45.7709 32.6402 45.1168 32.7723 44.2453L33.4222 39.9523C33.6159 38.6729 34.1101 37.5027 34.8321 36.5137L34.8324 49.8493C34.8324 57.0196 40.6659 62.8529 47.836 62.8529H48.1596C55.3299 62.8529 61.1632 57.0195 61.1632 49.8493V34.1341C64.2994 37.1335 65.0181 41.8794 64.9412 45.6293V55.3251L64.3948 58.9341C63.9655 61.7693 61.7721 63.9627 58.937 64.3919L55.2135 64.9556C53.0998 65.3148 53.1012 68.3055 55.2135 68.6639L58.9371 69.2277C61.7723 69.657 63.9657 71.8503 64.3949 74.6855L64.5105 75.4491C64.1162 75.94 63.5213 76.2488 62.9156 76.2488ZM66.8129 70.4594C65.9299 68.9488 64.6738 67.6929 63.1632 66.8099C64.6738 65.9269 65.9297 64.6708 66.8127 63.1602C67.6957 64.6708 68.9518 65.9267 70.4624 66.8099C68.9519 67.6929 67.6959 68.9488 66.8129 70.4594Z" fill="white"/>
</g>
<defs>
<clipPath id="clip0_10279_55230">
<rect width="64" height="64" fill="white" transform="translate(16 16.0001)"/>
</clipPath>
</defs>
</svg>
