<?xml version="1.0" encoding="UTF-8"?>
<svg id="Layer_2" data-name="Layer 2" xmlns="http://www.w3.org/2000/svg" viewBox="0 0 511.37 511.37">
  <defs>
    <style>
      .cls-1 {
        fill: none;
      }

      .cls-1, .cls-2 {
        stroke-width: 0px;
      }

      .cls-2 {
        fill: #fff;
      }
    </style>
  </defs>
  <g id="Layer_1-2" data-name="Layer 1">
    <g>
      <path class="cls-2" d="m144.44,116.16c12.19-18.61,19.98-38.52,23.16-60.25,1.53-10.42,1.27-20.89,1.34-31.36.08-10.32,3.2-13.53,13.33-13.53,49.06,0,98.13-.01,147.19,0,9.77,0,13.29,3.34,13.05,13.26-.57,23.88,2.21,47.11,12.09,69.17,3.07,6.85,6.83,13.3,10.49,19.83,1.36,2.43,2.15,3.17,4.4.49,7.72-9.21,17.95-11.88,29.28-9.2,11.38,2.69,19.51,10.42,20.78,21.72,1.02,9.14,4.86,13.76,12.1,18.43,8.81,5.68,12.84,15.11,12.89,25.71.02,3.9,1.4,5.51,5.04,6.54,12.4,3.5,25.03,5.36,37.86,5.78,10.22.33,13.15,3.06,13.17,13.05.07,69.34-23.41,130.18-66.66,183.77-25.12,31.12-56.31,54.82-91.18,74.08-25.62,14.15-51,28.73-76.28,43.47-7.45,4.34-13.81,4.37-21.34-.02-32.74-19.11-66.03-37.29-98.55-56.77-25.56-15.31-47.57-35.13-66.75-58-.96-1.14-1.95-2.3-2.68-3.59-2.37-4.22-1.32-9.56,2.37-12.67,3.87-3.27,8.91-3.46,12.72.13,3.74,3.53,6.97,7.58,10.45,11.38,21.99,24.1,48.08,42.8,76.5,58.56,24,13.3,47.75,27.04,71.57,40.66,3.08,1.76,5.67,2.54,9.17.52,30.8-17.82,62.06-34.87,92.5-53.29,39.51-23.91,69.94-56.9,92.76-97.01,19.55-34.36,30.58-71.34,34.67-110.52q1.33-12.71-10.84-14.57c-9.7-1.49-19.34-3.31-28.63-6.56-3.02-1.06-5.01-.16-7.71,1.35-6.58,3.68-8.7,7.67-7.52,15.9,2,14.08-5.08,25.06-17.38,32.15-3.08,1.77-3.68,3.24-2.78,6.62,7.71,28.87-17.14,54.72-46.38,48.26-3.26-.72-5.18.01-7.29,2.48-11.4,13.35-25.64,22.06-43.02,25.19-3.52.63-5.34,2-6.4,5.6-5.91,20.17-24.61,34.52-44.98,34.86-21.31.36-40.33-13.02-46.94-33.55-1.41-4.37-3.4-6.36-7.96-7.13-17.31-2.91-31.13-12.05-42.5-25.1-1.98-2.27-3.78-2.98-6.87-2.32-28.87,6.24-53.45-18.88-46.39-47.52.97-3.95.41-5.72-3.19-7.81-13.66-7.92-19.72-22.15-16.12-37.42.76-3.23-.48-4.31-2.63-6.39-6.6-6.39-13.39-5.66-21.27-2.94-8.31,2.87-17.1,4.2-25.93,4.7-4.23.24-6.13,1.8-5.89,6.49,1.39,27.47,7.5,53.91,16.83,79.69,1.02,2.81,2.22,5.58,3.01,8.46,1.65,6.02-.92,11.21-6.18,12.95-5.33,1.77-10.56-.71-12.84-6.4-14.14-35.25-22.35-71.66-21.23-109.88.21-7.14,3.79-10.59,11.4-10.8,13.52-.36,26.8-2.19,39.84-5.91,3.36-.96,4.76-2.41,4.86-6.18.36-14.04,7.08-24.33,19.71-30.49,2.91-1.42,4.24-2.88,4.22-6.31-.1-13.38,7.48-24.46,19.18-28.68,11.96-4.32,24.07-.72,33.11,9.82.21.25.49.43,1.27,1.11ZM255.94,31.31c-17.96,0-35.92-.12-53.88.04-15.25.13-12.45-2.53-13.01,13.36-.12,3.31,1.27,4.41,4.42,4.34,5.82-.13,11.64-.09,17.46,0,7.19.1,11.85,4.05,11.95,10,.1,5.87-5.03,10.29-12.19,10.37-6.65.07-13.31.16-19.95-.03-3.59-.11-5.24,1.07-6.11,4.77-7.67,32.46-24.17,59.89-48.13,82.92-2.16,2.07-3.08,3.99-2.26,6.97,1.35,4.9,1.31,9.94-.2,14.78-1.04,3.34-.07,4.97,2.83,6.78,12.74,7.95,18.68,19.5,16.87,34.57-.35,2.95.5,4.08,3.09,5.13,24.91,10.15,33.22,35.7,19,58.56-1.64,2.64-1.45,4.43.55,6.56,7.85,8.36,17.26,13.9,28.46,16.52,2.92.68,4.21-.17,5.15-2.92,1.88-5.53,4.34-10.8,8.21-15.29,25.31-29.38,69.34-21.71,83.04,14.59,1.45,3.83,3.17,4.17,6.64,3.26,10.82-2.82,19.69-8.6,27.19-16.78,1.9-2.07,1.99-3.63.48-6.07-14.19-22.97-5.92-47.97,19.3-58.54,2.3-.96,3.4-1.93,3.01-4.74-2.14-15.35,4.06-26.87,16.9-34.98,2.65-1.67,3.74-3.17,2.74-6.38-1.55-5-1.59-10.2-.22-15.27.75-2.79-.07-4.62-2.09-6.57-24.2-23.27-40.92-50.91-48.44-83.82-.69-3.01-2.04-4.1-5.08-4.04-7.48.14-14.97.18-22.45-.04-6.05-.18-10.76-4.99-10.62-10.38.14-5.49,4.4-9.59,10.52-9.88,3.82-.18,7.65-.06,11.47-.07,11.91,0,11.69,0,11.81-11.88.05-4.74-1.68-5.94-6.11-5.9-20.12.17-40.24.08-60.36.07Zm27.69,288.05c.07-15.57-12.17-28.09-27.61-28.25-15.62-.17-28.19,12.43-28.14,28.21.04,15.48,12.52,28.03,27.87,28.03,15.43,0,27.82-12.44,27.89-27.99Zm-121.12-57.5c0-9.86-8.57-18.51-18.45-18.61-10-.1-18.88,8.83-18.72,18.84.16,9.91,8.85,18.44,18.7,18.34,9.93-.09,18.47-8.68,18.47-18.57Zm205.41,18.6c9.75-.1,18.37-8.99,18.22-18.81-.14-9.9-8.95-18.59-18.64-18.38-10.12.22-18.49,8.59-18.54,18.53-.05,10,8.85,18.76,18.95,18.65Zm-247.75-51.81c7.42-.1,13.6-6.44,13.49-13.83-.11-7.42-6.45-13.62-13.83-13.51-7.4.11-13.6,6.46-13.49,13.85.1,7.43,6.42,13.59,13.83,13.49Zm284.98-13.29c.23-7.35-5.87-13.82-13.28-14.05-7.24-.23-13.82,6.01-14.05,13.33-.23,7.34,5.9,13.8,13.3,14.02,7.38.22,13.78-5.85,14.02-13.29Zm-304.03-57.98c-7.4-.11-13.68,6.02-13.8,13.46-.12,7.43,5.99,13.75,13.4,13.87,7.23.12,13.76-6.2,13.9-13.47.14-7.2-6.25-13.76-13.5-13.87Zm309.68,27.34c7.42-.14,13.5-6.46,13.37-13.9-.13-7.45-6.42-13.57-13.83-13.44-7.26.13-13.66,6.72-13.48,13.89.18,7.29,6.7,13.58,13.94,13.45Zm-282.08-51.84c.09-4.54-3.82-8.56-8.45-8.69-4.89-.13-9.02,3.84-8.99,8.65.03,4.7,3.77,8.67,8.38,8.88,4.42.2,8.96-4.23,9.06-8.84Zm271.5-.13c-.01-4.84-3.62-8.48-8.48-8.56-4.92-.08-9.06,3.93-8.97,8.68.08,4.2,4.54,8.76,8.65,8.85,4.73.1,8.81-4.06,8.79-8.97Z"/>
      <path class="cls-2" d="m60.93,348.89c-5.51-.04-10.1-4.8-9.96-10.35.13-5.25,4.74-9.84,9.96-9.92,5.43-.08,10.23,4.69,10.21,10.13-.02,5.56-4.68,10.17-10.21,10.13Z"/>
      <path class="cls-2" d="m255.96,49.09c5.21.04,9.9,4.71,9.93,9.9.03,5.46-4.69,10.3-10.08,10.33-5.38.03-10.16-4.76-10.19-10.22-.04-5.36,4.82-10.05,10.35-10.01Z"/>
    </g>
    <rect class="cls-1" width="511.37" height="511.37"/>
  </g>
</svg>