<svg width="41" height="40" viewBox="0 0 41 40" fill="none" xmlns="http://www.w3.org/2000/svg">
<path fill-rule="evenodd" clip-rule="evenodd" d="M3.35476 14.3471C4.24622 13.5656 5.41424 13.0919 6.69268 13.0919H12.9687V14.3919C12.9687 13.0919 12.9693 13.0919 12.97 13.0919L12.9715 13.0919L12.9747 13.0919L12.9826 13.092L13.0041 13.0922C13.0208 13.0925 13.0423 13.093 13.0684 13.0939C13.1205 13.0956 13.1909 13.0989 13.2771 13.105C13.4489 13.1173 13.6859 13.1412 13.9669 13.188C14.5228 13.2807 15.2838 13.4684 16.0605 13.8567C16.8423 14.2477 17.6637 14.8544 18.2867 15.7889C18.72 16.4388 19.0325 17.2103 19.1848 18.1127H21.8152C21.9675 17.2103 22.28 16.4388 22.7133 15.7889C23.3363 14.8544 24.1577 14.2477 24.9395 13.8567C25.7162 13.4684 26.4772 13.2807 27.0331 13.188C27.3141 13.1412 27.5511 13.1173 27.7229 13.105C27.8091 13.0989 27.8795 13.0956 27.9316 13.0939C27.9577 13.093 27.9792 13.0925 27.9959 13.0922L28.0174 13.092L28.0253 13.0919L28.0285 13.0919L28.03 13.0919C28.0307 13.0919 28.0313 13.0919 28.0313 14.3919V13.0919H34.3073C35.5861 13.0919 36.7541 13.5656 37.6455 14.3471H39.3281C40.0461 14.3471 40.6281 14.9292 40.6281 15.6471C40.6281 16.3651 40.0461 16.9471 39.3281 16.9471H39.2275C39.3225 17.335 39.3729 17.7404 39.3729 18.1575H38.0729C39.3729 18.1575 39.3729 18.1581 39.3729 18.1587V18.1601L39.3729 18.1635L39.3729 18.1727L39.3726 18.2007C39.3723 18.2235 39.3717 18.2546 39.3706 18.2933C39.3684 18.3708 39.3641 18.4794 39.3558 18.6145C39.3393 18.8844 39.3067 19.2629 39.2422 19.7143C39.1142 20.6103 38.8558 21.8276 38.3264 23.0629C37.7971 24.298 36.9751 25.6007 35.6938 26.5973C34.394 27.6082 32.6973 28.244 30.5417 28.244C27.2703 28.244 25.0165 26.7645 23.6179 24.8998C22.6146 23.5621 22.0523 22.0322 21.8272 20.7127H19.1728C18.9477 22.0322 18.3854 23.5621 17.3821 24.8998C15.9835 26.7645 13.7297 28.244 10.4583 28.244C8.30268 28.244 6.60597 27.6082 5.30617 26.5973C4.02487 25.6007 3.2029 24.298 2.67357 23.0629C2.14419 21.8276 1.8858 20.6103 1.75779 19.7143C1.69331 19.2629 1.66072 18.8844 1.64419 18.6145C1.63592 18.4794 1.63163 18.3708 1.62942 18.2933C1.62831 18.2546 1.62772 18.2235 1.62741 18.2007L1.62711 18.1727L1.62706 18.1635L1.62705 18.1601L1.62705 18.1587C1.62705 18.1581 1.62705 18.1575 2.92705 18.1575H1.62705C1.62705 17.7404 1.67748 17.335 1.77257 16.9471H1.67188C0.953906 16.9471 0.371876 16.3651 0.371876 15.6471C0.371876 14.9292 0.953906 14.3471 1.67188 14.3471H3.35476ZM4.22705 18.1553L4.22716 18.1648C4.2273 18.1752 4.22763 18.1935 4.22836 18.2191C4.22982 18.2703 4.2329 18.3505 4.23933 18.4556C4.25223 18.6662 4.27847 18.9742 4.33166 19.3466C4.439 20.098 4.65132 21.0773 5.06335 22.0387C5.47542 23.0002 6.06556 23.8941 6.90242 24.545C7.72079 25.1815 8.8483 25.644 10.4583 25.644C12.8354 25.644 14.3471 24.6131 15.3021 23.3398C16.2985 22.0113 16.6896 20.4066 16.6896 19.4127C16.6896 18.385 16.4364 17.7006 16.1234 17.2312C15.805 16.7536 15.3711 16.419 14.8978 16.1823C14.4193 15.943 13.9251 15.8169 13.5395 15.7527C13.3498 15.7211 13.1945 15.7057 13.0918 15.6984C13.0407 15.6948 13.0032 15.6931 12.9818 15.6924L12.9627 15.6919H6.69268C5.33196 15.6919 4.22827 16.7945 4.22705 18.1553ZM36.7729 18.1565C36.7729 18.1562 36.7729 18.1569 36.7729 18.1565C36.7729 18.1563 36.7729 18.1554 36.7729 18.1552C36.7717 16.7943 35.6685 15.6919 34.3073 15.6919H28.0373L28.0182 15.6924C27.9968 15.6931 27.9593 15.6948 27.9082 15.6984C27.8055 15.7057 27.6502 15.7211 27.4605 15.7527C27.0749 15.8169 26.5807 15.943 26.1022 16.1823C25.6289 16.419 25.195 16.7536 24.8766 17.2312C24.5636 17.7006 24.3104 18.385 24.3104 19.4127C24.3104 20.4066 24.7015 22.0113 25.6979 23.3398C26.6529 24.6131 28.1646 25.644 30.5417 25.644C32.1517 25.644 33.2792 25.1815 34.0976 24.545C34.9344 23.8941 35.5246 23.0002 35.9367 22.0387C36.3487 21.0773 36.561 20.098 36.6683 19.3466C36.7215 18.9742 36.7478 18.6662 36.7607 18.4556C36.7671 18.3505 36.7702 18.2703 36.7716 18.2191C36.7724 18.1935 36.7727 18.1752 36.7728 18.1648L36.7729 18.1565Z" fill="white" fill-opacity="0.5"/>
<path fill-rule="evenodd" clip-rule="evenodd" d="M36.9702 9.31116C37.3718 9.90627 37.215 10.7143 36.6199 11.1159L7.09947 31.0392C6.50435 31.4408 5.69632 31.284 5.29468 30.6888C4.89303 30.0937 5.04988 29.2857 5.64499 28.8841L35.1654 8.96084C35.7605 8.5592 36.5686 8.71604 36.9702 9.31116Z" fill="#F04248"/>
</svg>
