<svg width="17" height="16" viewBox="0 0 17 16" fill="none" xmlns="http://www.w3.org/2000/svg">
<g clip-path="url(#clip0_16634_4702)">
<path d="M15.66 3.88062C14.7133 2.48062 12.5666 0.140625 8.79995 0.140625C5.03329 0.140625 2.88662 2.48062 1.93995 3.88062C1.64662 4.30729 1.49329 4.80729 1.49329 5.30729C1.49329 5.80729 1.64662 6.30729 1.93995 6.73396C2.88662 8.13396 5.03329 10.474 8.79995 10.474C12.5666 10.474 14.7133 8.12729 15.66 6.73396C15.9533 6.30729 16.1066 5.80729 16.1066 5.30729C16.1066 4.80729 15.9533 4.30729 15.66 3.88062ZM14.62 6.15396C13.8066 7.35396 11.9733 9.36729 8.79995 9.36729C5.62662 9.36729 3.78662 7.35396 2.97995 6.15396C2.80662 5.90062 2.71329 5.60729 2.71329 5.30729C2.71329 5.00729 2.80662 4.71396 2.97995 4.46062C3.79329 3.26062 5.62662 1.24729 8.79995 1.24729C11.9733 1.24729 13.8133 3.26062 14.62 4.46062C14.7933 4.71396 14.8866 5.00729 14.8866 5.30729C14.8866 5.60729 14.7933 5.90062 14.62 6.15396Z" fill="black"/>
<path d="M8.79995 2.54062C8.19995 2.54062 7.60662 2.70062 7.10662 3.00729C6.60662 3.31396 6.21329 3.74062 5.98662 4.24729C5.75329 4.75396 5.69329 5.30729 5.81329 5.84729C5.93329 6.38062 6.21995 6.87396 6.64662 7.26062C7.07329 7.64729 7.61329 7.91396 8.20662 8.02062C8.79995 8.12729 9.40662 8.07396 9.96662 7.86062C10.52 7.65396 11 7.29396 11.3333 6.84062C11.6666 6.38729 11.8466 5.85396 11.8466 5.30062C11.8466 4.56729 11.5266 3.86729 10.9533 3.34729C10.38 2.82729 9.60662 2.53396 8.79995 2.53396V2.54062ZM8.79995 6.96729C8.43995 6.96729 8.08662 6.86729 7.78662 6.68729C7.48662 6.50729 7.25329 6.24729 7.11329 5.94062C6.97329 5.64062 6.93995 5.30062 7.00662 4.98062C7.07995 4.66062 7.25329 4.36062 7.50662 4.13396C7.75995 3.90062 8.08662 3.74062 8.43995 3.68062C8.79329 3.61396 9.15995 3.64729 9.49329 3.77396C9.82662 3.90062 10.1133 4.11396 10.3133 4.38729C10.5133 4.66062 10.62 4.98062 10.62 5.30729C10.62 5.74729 10.4266 6.16729 10.0866 6.48062C9.74662 6.79396 9.27995 6.96729 8.79329 6.96729H8.79995Z" fill="black"/>
<path d="M15.86 16.0006C15.5333 16.0006 15.26 15.734 15.26 15.4006V13.3406H2.69997V15.4006C2.69997 15.7273 2.43331 16.0006 2.09997 16.0006C1.76664 16.0006 1.49997 15.7273 1.49997 15.4006V10.394C1.49997 10.0673 1.77331 9.79396 2.09997 9.79396C2.42664 9.79396 2.69997 10.0606 2.69997 10.394V12.1473H15.26V10.394C15.26 10.0673 15.5266 9.79396 15.86 9.79396C16.1933 9.79396 16.46 10.0606 16.46 10.394V15.4006C16.46 15.7273 16.1933 16.0006 15.86 16.0006Z" fill="black"/>
<path d="M16.1933 10.4006V15.4073C16.1933 15.5873 16.0466 15.7406 15.86 15.7406C15.6733 15.7406 15.5266 15.5873 15.5266 15.4073V13.0806H2.43331V15.4073C2.43331 15.5873 2.28664 15.7406 2.09997 15.7406C1.91331 15.7406 1.76664 15.5873 1.76664 15.4073V10.4006C1.76664 10.2206 1.91997 10.0673 2.09997 10.0673C2.27997 10.0673 2.43331 10.2206 2.43331 10.4006V12.4206H15.5266V10.4006C15.5266 10.2206 15.6733 10.0673 15.86 10.0673C16.0466 10.0673 16.1933 10.2206 16.1933 10.4006Z" fill="black"/>
</g>
<defs>
<clipPath id="clip0_16634_4702">
<rect width="16" height="16" fill="white" transform="translate(0.833374)"/>
</clipPath>
</defs>
</svg>
