<svg width="24" height="24" viewBox="0 0 24 24" fill="none" xmlns="http://www.w3.org/2000/svg">
<mask id="mask0_11242_747" style="mask-type:alpha" maskUnits="userSpaceOnUse" x="4" y="4" width="16" height="16">
<rect x="4" y="4" width="16" height="16" fill="#D9D9D9"/>
</mask>
<g mask="url(#mask0_11242_747)">
<path d="M11.3532 17.8342V14.587C11.3532 14.4035 11.4152 14.2498 11.5391 14.1261C11.6628 14.0022 11.8165 13.9403 12 13.9403C12.1835 13.9403 12.3372 14.0022 12.4609 14.1261C12.5848 14.2498 12.6468 14.4035 12.6468 14.587V17.8208L13.9636 16.4909C14.0918 16.3627 14.2463 16.2971 14.4271 16.2943C14.6077 16.2915 14.765 16.3571 14.8988 16.4909C15.0326 16.6247 15.0995 16.7805 15.0995 16.9585C15.0995 17.1364 15.0326 17.2923 14.8988 17.4261L12.5457 19.7794C12.4649 19.8601 12.3797 19.917 12.2902 19.9502C12.2006 19.9834 12.1039 20 12 20C11.8961 20 11.7994 19.9834 11.7098 19.9502C11.6203 19.917 11.5351 19.8601 11.4543 19.7794L9.08785 17.4129C8.95965 17.2846 8.89641 17.1322 8.89813 16.9559C8.89972 16.7797 8.96741 16.6247 9.10122 16.4909C9.23503 16.3571 9.38867 16.2902 9.56214 16.2902C9.73576 16.2902 9.88948 16.3571 10.0233 16.4909L11.3532 17.8342ZM6.17915 12.6467L7.50911 13.9635C7.63731 14.0917 7.70285 14.2462 7.70572 14.4271C7.70845 14.6077 7.64292 14.765 7.50911 14.8988C7.3753 15.0326 7.21943 15.0995 7.0415 15.0995C6.86357 15.0995 6.7077 15.0326 6.57389 14.8988L4.22055 12.5456C4.13992 12.4649 4.083 12.3797 4.0498 12.2902C4.0166 12.2006 4 12.1039 4 12C4 11.8961 4.0166 11.7993 4.0498 11.7098C4.083 11.6203 4.13992 11.5351 4.22055 11.4543L6.57389 9.1012C6.70209 8.97299 6.85437 8.90745 7.03072 8.90458C7.20707 8.90185 7.36215 8.96739 7.49596 9.1012C7.62962 9.235 7.69645 9.38864 7.69645 9.56212C7.69645 9.73574 7.62962 9.88945 7.49596 10.0233L6.16579 11.3532H9.41296C9.59649 11.3532 9.75013 11.4152 9.87388 11.5391C9.99777 11.6628 10.0597 11.8164 10.0597 12C10.0597 12.1835 9.99777 12.3372 9.87388 12.4609C9.75013 12.5848 9.59649 12.6467 9.41296 12.6467H6.17915ZM17.8342 12.6467H14.587C14.4035 12.6467 14.2499 12.5848 14.1261 12.4609C14.0022 12.3372 13.9403 12.1835 13.9403 12C13.9403 11.8164 14.0022 11.6628 14.1261 11.5391C14.2499 11.4152 14.4035 11.3532 14.587 11.3532H17.8208L16.4909 10.0364C16.3627 9.90821 16.2972 9.75371 16.2943 9.5729C16.2915 9.39224 16.3571 9.235 16.4909 9.1012C16.6247 8.96739 16.7806 8.90048 16.9585 8.90048C17.1364 8.90048 17.2923 8.96739 17.4261 9.1012L19.7795 11.4543C19.8601 11.5351 19.917 11.6203 19.9502 11.7098C19.9834 11.7993 20 11.8961 20 12C20 12.1039 19.9834 12.2006 19.9502 12.2902C19.917 12.3797 19.8601 12.4649 19.7795 12.5456L17.413 14.9121C17.2846 15.0403 17.1345 15.1036 16.9626 15.1018C16.7907 15.1003 16.6378 15.0326 16.504 14.8988C16.3704 14.765 16.3035 14.6113 16.3035 14.4378C16.3035 14.2642 16.3704 14.1105 16.504 13.9767L17.8342 12.6467ZM11.3532 6.16576L10.0099 7.50909C9.88172 7.63729 9.73167 7.70283 9.55977 7.7057C9.38788 7.70843 9.23503 7.64289 9.10122 7.50909C8.96741 7.37528 8.90051 7.22164 8.90051 7.04816C8.90051 6.87454 8.96741 6.72083 9.10122 6.58702L11.4543 4.22052C11.5351 4.13989 11.6203 4.08298 11.7098 4.04978C11.7994 4.01658 11.8961 3.99998 12 3.99998C12.1039 3.99998 12.2006 4.01658 12.2902 4.04978C12.3797 4.08298 12.4649 4.13989 12.5457 4.22052L14.9121 6.58702C15.0404 6.71537 15.1058 6.86549 15.1085 7.03738C15.1113 7.20928 15.0458 7.36213 14.9121 7.49594C14.7783 7.6296 14.6246 7.69643 14.451 7.69643C14.2775 7.69643 14.1239 7.6296 13.9901 7.49594L12.6468 6.16576V9.41293C12.6468 9.59647 12.5848 9.75011 12.4609 9.87386C12.3372 9.99775 12.1835 10.0597 12 10.0597C11.8165 10.0597 11.6628 9.99775 11.5391 9.87386C11.4152 9.75011 11.3532 9.59647 11.3532 9.41293V6.16576Z" fill="#101112"/>
</g>
</svg>
