<svg width="68" height="17" viewBox="0 0 68 17" fill="none" xmlns="http://www.w3.org/2000/svg">
<path d="M19.6857 6.75143L16.1895 0.697299C16.1195 0.574974 15.9893 0.5 15.8482 0.5H4.52517C4.3841 0.5 4.25388 0.574974 4.18384 0.697299L0.687692 6.75143C0.597921 6.90631 0.624556 7.10164 0.750828 7.22791L1.58047 8.05756C1.76396 8.24104 2.07175 8.2006 2.20098 7.97568L5.2897 2.6259C5.35974 2.50358 5.48996 2.4286 5.63103 2.4286H14.7403C14.8814 2.4286 15.0116 2.50259 15.0817 2.62492L17.469 6.7613C17.6209 7.02469 17.4305 7.3532 17.1267 7.3532H15.8285C15.6874 7.3532 15.5572 7.27822 15.4861 7.1559L13.9738 4.53773C13.9038 4.41541 13.7736 4.34043 13.6325 4.34043H6.73591C6.59484 4.34043 6.46462 4.41541 6.39458 4.53773L3.49526 9.559C3.40549 9.71389 3.43213 9.90921 3.5584 10.0355L9.9075 16.3846C10.0614 16.5385 10.311 16.5385 10.4659 16.3846L15.6726 11.1778C15.9212 10.9292 15.7456 10.5041 15.3934 10.5041H13.7815C13.6769 10.5041 13.5763 10.5455 13.5023 10.6195L10.4649 13.6559C10.311 13.8098 10.0614 13.8098 9.90651 13.6559L5.96249 9.71191C5.83622 9.58564 5.81057 9.39031 5.89936 9.23543L7.49748 6.46634C7.56752 6.34401 7.69873 6.26904 7.83881 6.26904H12.5306C12.6717 6.26904 12.8019 6.34401 12.8719 6.46634L13.9847 8.39395C14.0547 8.51628 14.1849 8.59125 14.326 8.59125H18.0925C18.197 8.59125 18.2977 8.54982 18.3716 8.47583L19.6205 7.22692C19.7468 7.10065 19.7725 6.90533 19.6837 6.75045L19.6857 6.75143Z" fill="url(#paint0_linear_10377_69623)"/>
<path d="M9.02556 8.13447C8.88449 8.13447 8.75428 8.20944 8.68423 8.33177L8.23538 9.10913C8.14561 9.26401 8.17224 9.45933 8.29851 9.58561L9.90749 11.1946C10.0614 11.3485 10.311 11.3485 10.4658 11.1946L12.0748 9.58561C12.2011 9.45933 12.2267 9.26401 12.138 9.10913L11.6891 8.33177C11.6191 8.20944 11.4879 8.13447 11.3478 8.13447H9.02556Z" fill="url(#paint1_linear_10377_69623)"/>
<path d="M24.262 8.49113C24.262 5.78319 25.866 4.13377 28.062 4.13377C29.888 4.13377 31.2987 5.27712 31.5828 6.92654H30.252C29.9452 5.93709 29.1886 5.31658 28.0738 5.31658C26.6464 5.31658 25.5484 6.43724 25.5484 8.48521C25.5484 10.5332 26.6296 11.6538 28.1251 11.6538C29.4677 11.6538 30.3605 10.8005 30.3891 9.44705H28.3126V8.37768H31.6578V9.35037C31.6578 11.495 30.1731 12.8376 28.1192 12.8376C25.8157 12.8376 24.263 11.1705 24.263 8.49212L24.262 8.49113Z" fill="white"/>
<path d="M34.3509 12.7233H33.099V4.24725H34.3509V12.7233Z" fill="white"/>
<path d="M35.5949 10.9258C35.5949 9.48057 36.8408 9.16193 38.0404 9.02579C39.1611 8.89459 39.6445 8.90051 39.6445 8.45165V8.41712C39.6445 7.71178 39.2232 7.30238 38.4271 7.30238C37.631 7.30238 37.1299 7.74039 36.9543 8.17247L35.7764 7.86567C36.2085 6.72824 37.2779 6.28431 38.4104 6.28431C39.4343 6.28431 40.8963 6.6651 40.8963 8.50295V12.7242H39.6849V11.8541H39.6228C39.3781 12.3493 38.7754 12.8662 37.7455 12.8662C36.534 12.8662 35.5949 12.1777 35.5949 10.9268V10.9258ZM39.6514 10.4306V9.61671C39.4639 9.79822 38.4962 9.90082 38.1095 9.95212C37.4041 10.0488 36.8241 10.2875 36.8241 10.9416C36.8241 11.5443 37.3242 11.857 38.0246 11.857C39.0427 11.857 39.6514 11.1744 39.6514 10.4296V10.4306Z" fill="white"/>
<path d="M43.699 6.36325L43.7276 7.55198C44.0521 6.67005 44.7634 6.25474 45.5191 6.25474C46.3497 6.25474 46.8952 6.74996 47.1458 7.59144C47.4704 6.7322 48.2546 6.25474 49.1592 6.25474C50.2858 6.25474 51.1727 6.98869 51.1727 8.43293V12.7222H49.9159V8.55821C49.9159 7.71081 49.3753 7.35271 48.7272 7.35271C47.937 7.35271 47.4585 7.89331 47.4585 8.64996V12.7232H46.2244V8.47929C46.2244 7.80255 45.7351 7.35271 45.0643 7.35271C44.3935 7.35271 43.7611 7.84202 43.7611 8.76932V12.7232H42.5093V6.36325H43.699Z" fill="white"/>
<path d="M55.2509 4.24725H56.8441L59.916 12.7233H58.5113L57.7319 10.4878H54.3985L53.6419 12.7233H52.2371L55.2519 4.24725H55.2509ZM57.3501 9.40664L56.8608 8.0068C56.633 7.33006 56.3775 6.4649 56.042 5.26532C55.7126 6.47674 55.4502 7.35867 55.24 8.0068L54.7675 9.40664H57.3501Z" fill="white"/>
<path d="M64.1116 4.24725C66.0738 4.24725 67.0464 5.34523 67.0464 6.90981C67.0464 8.04725 66.5285 8.9124 65.4996 9.29911L67.3651 12.7233H65.8922L64.1738 9.52107H62.3704V12.7233H61.0732V4.24725H64.1116ZM63.9755 8.41126C65.2155 8.41126 65.7334 7.85981 65.7334 6.90981C65.7334 5.95981 65.2155 5.35706 63.9646 5.35706H62.3724V8.41126H63.9765H63.9755Z" fill="white"/>
<defs>
<linearGradient id="paint0_linear_10377_69623" x1="29.3757" y1="-0.782446" x2="29.9348" y2="10.6171" gradientUnits="userSpaceOnUse">
<stop stop-color="#E65F6E"/>
<stop offset="1" stop-color="#DA0E64"/>
</linearGradient>
<linearGradient id="paint1_linear_10377_69623" x1="28.0041" y1="-0.715402" x2="28.5632" y2="10.6841" gradientUnits="userSpaceOnUse">
<stop stop-color="#E65F6E"/>
<stop offset="1" stop-color="#DA0E64"/>
</linearGradient>
</defs>
</svg>
