<svg width="16" height="16" viewBox="0 0 16 16" fill="none" xmlns="http://www.w3.org/2000/svg">
<path d="M1.34763 8.58333C1.47618 10.1032 2.1205 11.5335 3.1737 12.6368C4.22689 13.7401 5.62565 14.4502 7.13792 14.6493C8.65019 14.8483 10.1851 14.5244 11.4879 13.7311C12.7907 12.9379 13.7832 11.7231 14.3006 10.2882C14.8181 8.85338 14.8294 7.28474 14.3328 5.84255C13.8361 4.40037 12.8613 3.17133 11.5701 2.35934C10.2789 1.54735 8.74886 1.20123 7.23388 1.37839C5.71889 1.55555 4.31 2.24534 3.24096 3.33333H5.3223C5.49911 3.33333 5.66868 3.40357 5.7937 3.5286C5.91873 3.65362 5.98896 3.82319 5.98896 4C5.98896 4.17681 5.91873 4.34638 5.7937 4.4714C5.66868 4.59643 5.49911 4.66667 5.3223 4.66667H2.5603C2.23201 4.66649 1.91723 4.536 1.68509 4.30387C1.45296 4.07174 1.32247 3.75695 1.3223 3.42867V0.666667C1.3223 0.489856 1.39254 0.320286 1.51756 0.195262C1.64258 0.0702379 1.81215 0 1.98897 0V0C2.16578 0 2.33535 0.0702379 2.46037 0.195262C2.58539 0.320286 2.65563 0.489856 2.65563 0.666667V2.052C3.99651 0.853819 5.70237 0.142989 7.49732 0.0344742C9.29226 -0.0740408 11.0713 0.426105 12.5468 1.45402C14.0223 2.48194 15.1078 3.97752 15.628 5.69888C16.1481 7.42024 16.0723 9.26672 15.413 10.9397C14.7536 12.6127 13.5491 14.0143 11.9944 14.9179C10.4397 15.8215 8.62568 16.1742 6.84565 15.9191C5.06563 15.6639 3.42373 14.8157 2.1855 13.5117C0.947266 12.2077 0.18511 10.5242 0.0222979 8.73333C0.0136862 8.6405 0.0245094 8.54688 0.0540743 8.45846C0.0836391 8.37003 0.131298 8.28873 0.194016 8.21974C0.256734 8.15075 0.333134 8.09558 0.41835 8.05775C0.503566 8.01992 0.595728 8.00025 0.688965 8C0.851599 7.99804 1.00914 8.05669 1.1309 8.16452C1.25266 8.27236 1.32992 8.42165 1.34763 8.58333Z" fill="white"/>
</svg>
