<svg width="32" height="40" viewBox="0 0 32 40" fill="none" xmlns="http://www.w3.org/2000/svg">
<path d="M30.411 19.7078C30.411 22.8454 30.5891 25.9953 30.368 29.1207C30.0733 33.3267 28.1146 36.6609 24.3076 38.7117C22.8647 39.4915 21.2621 39.7739 19.6411 39.9213C17.6455 40.1055 15.6745 40.038 13.7527 39.381C11.0817 38.4661 9.06155 36.7223 7.45282 34.4565C5.65374 31.9206 4.56079 29.0654 3.76256 26.0936C3.33889 24.5217 2.73715 23.0296 2.04945 21.5683C1.42929 20.2358 1.83454 18.8052 3.04416 18.1359C4.27834 17.4543 5.72743 17.8534 6.50109 19.1245C7.83351 21.3165 9.14751 23.527 10.4677 25.7313C10.5413 25.8541 10.6089 25.9769 10.6887 26.0936C10.9712 26.4866 11.4194 26.5909 11.8124 26.3638C12.193 26.1366 12.322 25.6761 12.1071 25.2462C11.9904 25.0068 11.8431 24.7796 11.708 24.5463C11.0571 23.4349 10.394 22.3235 9.75539 21.1999C9.65101 21.0156 9.57732 20.7762 9.57732 20.5613C9.56504 15.7351 9.57733 10.9027 9.56505 6.07656C9.55891 4.48011 11.0019 3.71872 12.3957 4.24064C13.0834 4.49853 13.4702 5.11255 13.4763 5.86779C13.4948 9.8712 13.5132 13.8746 13.5255 17.8841C13.5255 18.0377 13.5193 18.1973 13.5378 18.3508C13.593 18.7561 13.9676 19.0692 14.3728 19.0569C14.7719 19.0446 15.1096 18.7499 15.1588 18.3508C15.1833 18.1666 15.1772 17.9824 15.1772 17.7982C15.1649 12.5606 15.1772 7.31688 15.1281 2.07929C15.1158 0.875814 15.9693 -0.22328 17.5657 0.0530282C18.4683 0.212673 19.0701 0.906515 19.0762 1.83982C19.0885 3.33189 19.0762 4.82396 19.0762 6.31602C19.0762 10.3931 19.0762 14.4702 19.0762 18.5411C19.0762 18.7499 19.0823 18.971 19.1499 19.1674C19.2665 19.5052 19.5306 19.6832 19.899 19.6894C20.2674 19.6894 20.5376 19.5297 20.6665 19.192C20.7402 19.0017 20.7525 18.7745 20.7525 18.5657C20.7525 14.1325 20.7525 9.70541 20.7525 5.27219C20.7525 4.27748 21.4279 3.5161 22.3858 3.41785C23.534 3.29505 24.412 3.84153 24.6331 4.83624C24.6822 5.05728 24.6822 5.28447 24.6822 5.51166C24.6822 10.2826 24.6822 15.0535 24.6822 19.8244C24.6822 19.9779 24.6761 20.1376 24.7006 20.2911C24.7682 20.6964 25.0997 20.9727 25.505 20.9788C25.9164 20.9788 26.2418 20.7332 26.3216 20.3218C26.3585 20.1437 26.3585 19.9534 26.3585 19.7692C26.3708 16.6193 26.3707 13.4632 26.3892 10.3133C26.3953 8.93175 27.6049 7.99844 28.9005 8.35457C29.7847 8.59404 30.3189 9.34928 30.3312 10.3808C30.3557 13.1194 30.368 15.864 30.3864 18.6025C30.3864 18.971 30.3864 19.3394 30.3864 19.7078H30.411Z" fill="white"/>
<path fill-rule="evenodd" clip-rule="evenodd" d="M20.8905 15.5308C20.8905 14.5038 21.723 13.6712 22.75 13.6712H22.7666C23.7936 13.6712 24.6261 14.5038 24.6261 15.5308C24.6261 16.5578 23.7936 17.3903 22.7666 17.3903H22.75C21.723 17.3903 20.8905 16.5578 20.8905 15.5308Z" fill="black"/>
<path fill-rule="evenodd" clip-rule="evenodd" d="M19.0484 15.5308C19.0484 13.4864 20.7057 11.8292 22.75 11.8292H22.7666C24.8109 11.8292 26.4682 13.4864 26.4682 15.5308C26.4682 17.5751 24.8109 19.2324 22.7666 19.2324H22.75C20.7057 19.2324 19.0484 17.5751 19.0484 15.5308ZM22.75 13.6712C21.723 13.6712 20.8905 14.5038 20.8905 15.5308C20.8905 16.5578 21.723 17.3903 22.75 17.3903H22.7666C23.7936 17.3903 24.6261 16.5578 24.6261 15.5308C24.6261 14.5038 23.7936 13.6712 22.7666 13.6712H22.75Z" fill="white"/>
</svg>
