<?xml version="1.0" encoding="UTF-8"?>
<svg id="Layer_2" data-name="Layer 2" xmlns="http://www.w3.org/2000/svg" viewBox="0 0 511.37 511.37">
  <defs>
    <style>
      .cls-1 {
        fill: none;
      }

      .cls-1, .cls-2 {
        stroke-width: 0px;
      }

      .cls-2 {
        fill: #fff;
      }
    </style>
  </defs>
  <g id="Layer_1-2" data-name="Layer 1">
    <rect class="cls-1" width="511.37" height="511.37"/>
    <g>
      <path class="cls-2" d="m335.56,74.68c-13.7,0-26.16.03-38.62-.03-2.51-.01-3.53,1.33-4.09,3.48-3.81,14.64-7.62,29.28-11.52,43.9-.74,2.79-.13,3.87,2.94,4.02,4.92.25,8.94-.43,12.01-5.06,2.73-4.12,6.33-7.7,9.76-11.32,3.6-3.79,7.63-4.01,11-.95,3.31,3,3.47,7.11.36,11.13-1.22,1.58-2.28,3.44-3.86,4.55-9.15,6.45-8.58,15.8-8.05,25.31.19,3.45,2.52,3.88,4.87,4.65,20.59,6.79,39.51,16.74,56.25,30.52,36.67,30.18,58.92,68.67,64.52,115.99,7.05,59.56-11.78,110.35-55.2,151.36-32.16,30.38-70.81,45.86-115.48,46.94-39.02.95-74.44-9.12-106.07-31.55-40.12-28.44-65.15-67.04-73.01-115.77-9.84-61.05,8.46-113.34,51.95-156.78,18.99-18.97,41.83-32.21,67.41-40.46,4.1-1.32,5.65-3.27,5.26-7.46-.27-2.96-.27-6.05.31-8.94.53-2.66-.28-4.36-1.91-6.25-13.77-16.01-27.5-32.05-41.15-48.17-5.92-6.98-10.06-14.56-6.43-24.15,1.58-4.17,4.57-7.33,7.53-10.46,9.14-9.67,18.39-19.22,27.59-28.84,5.31-5.55,11.49-8.32,19.48-8.24,29.93.3,59.87.24,89.81.03,6.86-.05,12.42,2.25,17,6.93,10.47,10.69,20.96,21.37,31.04,32.43,9.11,10,9.16,19.33.81,30.08-3.06,3.94-6.38,7.67-9.73,11.36-3.92,4.33-8.23,4.89-11.72,1.76-3.47-3.12-3.54-7.04-.08-11.51,2.01-2.59,4.17-5.07,7.03-8.52Zm81.32,247.2c-.15-5.22-.11-11.51-.92-17.82-6.62-51.4-31.87-91.07-75.57-118.64-18.19-11.47-37.19-20.03-60.22-17.55-18.25,1.96-36.99,1.58-55.31-.03-12.2-1.08-22.5,2.2-33.01,6.67-4.73,2.01-9.3,4.45-13.81,6.92-60.76,33.21-93.51,101.53-81.19,169.29,15.87,87.28,96.73,145.29,184.19,131.47,79.54-12.57,136.45-81.03,135.84-160.31Zm-160.86-247.23c-5.64,0-11.3.19-16.93-.07-4.06-.19-5.22.78-4.01,5.04,3.24,11.32,5.92,22.81,9.02,34.17,3.73,13.65.94,11.4,15.35,11.64.33,0,.66-.03,1-.02,2.75.12,4.2-1.18,4.89-3.87,3.73-14.46,7.56-28.9,11.42-43.32.71-2.64-.04-3.65-2.81-3.6-5.97.11-11.95.03-17.93.03Zm-78.91.06c-.36,1.75.65,2.29,1.25,3,12.3,14.4,24.82,28.61,36.79,43.27,3.43,4.2,7.04,5.38,12,5.07,2.96-.18,3.79-1.08,3.02-3.96-3.89-14.6-7.67-29.23-11.51-43.84-.48-1.82-1.09-3.55-3.48-3.55-12.72,0-25.45,0-38.07,0Zm78.67,77.45c9.81,0,19.63-.1,29.44.05,3.66.06,5.01-1.32,4.99-4.98-.02-3.65-1.44-5.03-5.05-5.02-19.63.08-39.25.08-58.88,0-3.66-.02-4.95,1.48-4.99,5.08-.03,3.72,1.45,4.97,5.05,4.91,9.81-.14,19.62-.05,29.44-.05Zm16.99-94.03c-5.44-8.01-10.25-15.1-15.09-22.18-.98-1.43-2.24-2.25-3.52-.4-5.02,7.27-9.98,14.59-15.42,22.58h34.03Zm-47.51-31.25c-3.98,0-7.96.06-11.94-.02-2.82-.05-3.71.75-2.09,3.45,3.69,6.1,7.27,12.27,10.86,18.42,1.15,1.98,2.31,2.89,3.96.46,4.37-6.45,8.77-12.89,13.16-19.32,1.87-2.74.2-3.01-2.02-3-3.98.02-7.96,0-11.94,0Zm61.15,0c-4.15,0-8.29.01-12.44,0-2.16,0-3.38.51-1.79,2.84,4.48,6.58,8.96,13.16,13.46,19.73,1.17,1.71,2.33,1.66,3.39-.13,3.79-6.43,7.56-12.87,11.38-19.28,1.52-2.54.39-3.19-2.05-3.16-3.98.05-7.96.01-11.94.01Zm-108.79,31.49c10.37,0,19.28,0,28.19,0,2.56,0,3.36-1.07,2-3.39-2.93-4.99-5.9-9.96-8.8-14.97-1.17-2.03-2.35-1.93-3.83-.34-5.5,5.89-11.04,11.76-17.56,18.7Zm156.28,0c-6.55-6.96-12.09-12.83-17.6-18.72-1.5-1.61-2.66-1.63-3.82.38-2.89,5.01-5.86,9.98-8.8,14.97-1.38,2.35-.5,3.37,2.02,3.37,8.91,0,17.81,0,28.2,0Z"/>
      <path class="cls-2" d="m119.99,59.29c3.32.16,6.68.04,9.94.54,4.25.65,7.04,3.2,6.98,7.73-.06,4.26-2.73,6.86-6.75,7.44-6.76.97-13.63.87-20.39.1-4.24-.48-7.01-3.46-6.97-7.83.05-4.42,2.93-7.06,7.22-7.56,3.28-.38,6.64-.08,9.96-.08,0-.12,0-.23,0-.35Z"/>
      <path class="cls-2" d="m390.96,75.27c-3.15,0-6.34.3-9.45-.07-4.96-.59-7.85-3.91-7.7-8.21.14-4.07,2.99-7.06,7.95-7.35,5.96-.35,11.96-.35,17.93-.05,5.08.25,8.29,3.54,8.28,7.64,0,4.21-3.56,7.71-8.54,8.11-2.81.23-5.64.04-8.47.04,0-.04,0-.08,0-.12Z"/>
      <path class="cls-2" d="m389.98,110.62c-.38,3.51-1.71,5.92-4.47,7.27-2.79,1.36-5.7,1.11-7.97-.87-5.25-4.58-10.35-9.38-14.7-14.84-2.64-3.31-2.24-6.87.77-9.89,2.67-2.69,6.04-3.39,9.04-1.09,5.93,4.55,11.09,9.99,15.89,15.72.89,1.07,1.09,2.72,1.45,3.7Z"/>
      <path class="cls-2" d="m128.13,118.63c-5.81-.16-9.47-6.7-5.97-11.58,4.35-6.06,9.82-11.26,15.76-15.79,2.94-2.24,6.37-1.72,9.06,1,2.76,2.79,3.74,6.27,1.21,9.44-4.66,5.83-10.03,11.04-15.81,15.79-1.16.96-2.72,1.18-4.26,1.14Z"/>
      <path class="cls-2" d="m389.9,23.65c-.21,2.34-1.09,4.31-2.62,5.88-4.17,4.26-8.28,8.59-12.69,12.6-3.81,3.46-8.02,3.36-11.11.28-3.11-3.1-3.15-7.41.31-11.11,4.19-4.47,8.58-8.76,13.03-12.96,2.49-2.35,5.59-2.95,8.75-1.38,2.73,1.35,4.07,3.77,4.34,6.7Z"/>
      <path class="cls-2" d="m128.36,16.12c2.31-.08,4.19.87,5.78,2.44,4.23,4.2,8.54,8.32,12.62,12.67,3.59,3.83,3.64,7.82.51,11.05-3.23,3.34-7.51,3.27-11.39-.46-4.42-4.24-8.71-8.62-12.94-13.05-2.28-2.39-2.64-5.34-1.27-8.31,1.28-2.78,3.59-4.25,6.7-4.34Z"/>
      <path class="cls-2" d="m130.58,321.52c.11,64.98,47.49,118.43,110.13,125.8,68.55,8.07,130.14-39.97,139.24-108.57.22-1.65.48-3.29.81-4.92.93-4.54,4.36-7.37,8.32-6.92,4.06.46,7.26,3.86,6.96,8.33-.35,5.12-1.1,10.25-2.15,15.28-12.42,59.24-58.9,102.97-118.88,111.98-72.86,10.94-144.83-40.83-157.7-113.7-8.28-46.87,4-88.16,36.21-122.93,51.5-55.6,140.12-58.84,196.2-7.93,23.73,21.54,38.64,47.91,44.56,79.38,1.19,6.34-.88,10.29-5.71,11.38-4.59,1.03-8.4-2.17-9.55-8.49-3.62-19.84-11.43-37.84-23.85-53.71-22.11-28.26-50.95-44.76-86.81-48.21-66.75-6.43-124.54,37.74-136.31,103.99-1.22,6.89-1.7,13.85-1.46,19.26Z"/>
    </g>
  </g>
</svg>