<svg width="16" height="16" viewBox="0 0 16 16" fill="none" xmlns="http://www.w3.org/2000/svg">
<g clip-path="url(#clip0_10690_386)">
<path d="M0.666667 3.16689H2.49067C2.63376 3.69338 2.94612 4.15816 3.37955 4.48951C3.81299 4.82087 4.34341 5.0004 4.889 5.0004C5.43459 5.0004 5.96501 4.82087 6.39845 4.48951C6.83188 4.15816 7.14424 3.69338 7.28733 3.16689H15.3333C15.5101 3.16689 15.6797 3.09665 15.8047 2.97163C15.9298 2.84661 16 2.67704 16 2.50023C16 2.32342 15.9298 2.15385 15.8047 2.02882C15.6797 1.9038 15.5101 1.83356 15.3333 1.83356H7.28733C7.14424 1.30707 6.83188 0.842297 6.39845 0.510939C5.96501 0.179581 5.43459 5.34058e-05 4.889 5.34058e-05C4.34341 5.34058e-05 3.81299 0.179581 3.37955 0.510939C2.94612 0.842297 2.63376 1.30707 2.49067 1.83356H0.666667C0.489856 1.83356 0.320286 1.9038 0.195262 2.02882C0.0702379 2.15385 0 2.32342 0 2.50023C0 2.67704 0.0702379 2.84661 0.195262 2.97163C0.320286 3.09665 0.489856 3.16689 0.666667 3.16689ZM4.88867 1.33356C5.11941 1.33356 5.34497 1.40198 5.53683 1.53018C5.72869 1.65837 5.87822 1.84058 5.96653 2.05376C6.05483 2.26694 6.07793 2.50152 6.03292 2.72783C5.9879 2.95414 5.87679 3.16202 5.71362 3.32518C5.55046 3.48835 5.34258 3.59946 5.11627 3.64448C4.88996 3.68949 4.65538 3.66639 4.4422 3.57809C4.22902 3.48978 4.04681 3.34025 3.91862 3.14839C3.79042 2.95653 3.722 2.73097 3.722 2.50023C3.72235 2.19092 3.84538 1.89437 4.0641 1.67566C4.28281 1.45694 4.57936 1.33391 4.88867 1.33356Z" fill="#4C4D4D"/>
<path d="M15.3333 7.33276H13.5093C13.3665 6.80615 13.0542 6.34121 12.6208 6.00971C12.1874 5.67822 11.657 5.4986 11.1113 5.4986C10.5657 5.4986 10.0352 5.67822 9.60182 6.00971C9.16842 6.34121 8.85619 6.80615 8.71333 7.33276H0.666667C0.489856 7.33276 0.320286 7.40299 0.195262 7.52802C0.0702379 7.65304 0 7.82261 0 7.99942C0 8.17623 0.0702379 8.3458 0.195262 8.47083C0.320286 8.59585 0.489856 8.66609 0.666667 8.66609H8.71333C8.85619 9.1927 9.16842 9.65764 9.60182 9.98913C10.0352 10.3206 10.5657 10.5002 11.1113 10.5002C11.657 10.5002 12.1874 10.3206 12.6208 9.98913C13.0542 9.65764 13.3665 9.1927 13.5093 8.66609H15.3333C15.5101 8.66609 15.6797 8.59585 15.8047 8.47083C15.9298 8.3458 16 8.17623 16 7.99942C16 7.82261 15.9298 7.65304 15.8047 7.52802C15.6797 7.40299 15.5101 7.33276 15.3333 7.33276ZM11.1113 9.16609C10.8806 9.16609 10.655 9.09766 10.4632 8.96947C10.2713 8.84127 10.1218 8.65906 10.0335 8.44588C9.94517 8.2327 9.92207 7.99813 9.96708 7.77182C10.0121 7.54551 10.1232 7.33763 10.2864 7.17446C10.4495 7.0113 10.6574 6.90019 10.8837 6.85517C11.11 6.81016 11.3446 6.83326 11.5578 6.92156C11.771 7.00987 11.9532 7.1594 12.0814 7.35126C12.2096 7.54311 12.278 7.76868 12.278 7.99942C12.2776 8.30873 12.1546 8.60527 11.9359 8.82399C11.7172 9.0427 11.4206 9.16573 11.1113 9.16609Z" fill="#4C4D4D"/>
<path d="M15.3333 12.8336H7.28733C7.14424 12.3071 6.83188 11.8423 6.39845 11.5109C5.96501 11.1796 5.43459 11.0001 4.889 11.0001C4.34341 11.0001 3.81299 11.1796 3.37955 11.5109C2.94612 11.8423 2.63376 12.3071 2.49067 12.8336H0.666667C0.489856 12.8336 0.320286 12.9038 0.195262 13.0288C0.0702379 13.1538 0 13.3234 0 13.5002C0 13.677 0.0702379 13.8466 0.195262 13.9716C0.320286 14.0966 0.489856 14.1669 0.666667 14.1669H2.49067C2.63376 14.6934 2.94612 15.1581 3.37955 15.4895C3.81299 15.8209 4.34341 16.0004 4.889 16.0004C5.43459 16.0004 5.96501 15.8209 6.39845 15.4895C6.83188 15.1581 7.14424 14.6934 7.28733 14.1669H15.3333C15.5101 14.1669 15.6797 14.0966 15.8047 13.9716C15.9298 13.8466 16 13.677 16 13.5002C16 13.3234 15.9298 13.1538 15.8047 13.0288C15.6797 12.9038 15.5101 12.8336 15.3333 12.8336ZM4.88867 14.6669C4.65792 14.6669 4.43236 14.5985 4.2405 14.4703C4.04864 14.3421 3.89911 14.1599 3.81081 13.9467C3.72251 13.7335 3.6994 13.4989 3.74442 13.2726C3.78943 13.0463 3.90055 12.8384 4.06371 12.6753C4.22687 12.5121 4.43475 12.401 4.66106 12.356C4.88737 12.311 5.12195 12.3341 5.33513 12.4224C5.54831 12.5107 5.73052 12.6602 5.85871 12.8521C5.98691 13.0439 6.05533 13.2695 6.05533 13.5002C6.0548 13.8095 5.93172 14.1059 5.71304 14.3246C5.49436 14.5433 5.19792 14.6664 4.88867 14.6669Z" fill="#4C4D4D"/>
</g>
<defs>
<clipPath id="clip0_10690_386">
<rect width="16" height="16" fill="white"/>
</clipPath>
</defs>
</svg>
