<?xml version="1.0" encoding="UTF-8"?>
<svg id="Layer_2" data-name="Layer 2" xmlns="http://www.w3.org/2000/svg" viewBox="0 0 511.37 511.37">
  <defs>
    <style>
      .cls-1 {
        fill: none;
      }

      .cls-1, .cls-2 {
        stroke-width: 0px;
      }

      .cls-2 {
        fill: #fff;
      }
    </style>
  </defs>
  <g id="Layer_1-2" data-name="Layer 1">
    <g>
      <path class="cls-2" d="m241.77,9.83c18.3,0,36.59-.04,54.89.01,14.66.04,25.23,9.24,27.41,23.75.59,3.97.63,7.98.13,11.94-.56,4.44-4.09,7.6-7.95,7.57-4.23-.04-7.41-3.28-7.8-8.14-.17-2.15-.06-4.32-.09-6.48-.15-9.04-4.15-13.14-13.14-13.16-24.28-.05-48.57-.02-72.85-.02-11.31,0-22.62-.06-33.93.02-9.35.07-13.4,4.07-13.43,13.44-.07,23.62.04,47.24-.09,70.86-.02,4.31.89,5.05,5.07,3.34,41.05-16.75,82.22-16.86,123.29-.07,4.05,1.66,5.23,1.16,5.14-3.28-.2-10.14-.08-20.29-.05-30.44.02-6.92,3.19-11.21,8.05-11.04,4.9.17,7.92,4.41,8.01,11.26.02,1.33.09,2.67,0,3.99-.21,3.46,1.49,4.8,4.82,4.66,3.83-.15,7.65.03,11.35,1.25,9.67,3.19,15.66,11.68,15.84,23.04.18,11.14.09,22.29.02,33.43-.02,2.8.7,5.03,2.66,7.19,18.28,20.12,30.44,43.52,36.46,69.99,1.19,5.21,3.34,6.95,8.71,6.88,15.94-.21,23.12,7.26,23.14,23.18,0,2.49.02,4.99,0,7.48-.13,12.4-6.98,19.89-19.31,21.08-1.65.16-3.33.23-4.98.11-3.59-.26-5.24,1.08-5.97,4.87-5.61,29.24-18.14,55.13-38.27,77.19-1.84,2.01-2.43,4.18-2.42,6.8.06,10.64.07,21.29,0,31.93-.09,16.5-9.08,25.76-25.58,25.8-5.04.01-6.69,1.58-6.55,6.6.3,11.47-.05,22.95.13,34.43.3,18.95-14.62,32.8-32.21,32.45-33.92-.67-67.86-.16-101.79-.21-18.9-.02-31.82-13.62-31.03-32.53.22-5.21,3.29-8.77,7.59-8.78,4.39-.01,7.54,3.38,7.92,8.54.98,13.04,5.54,17.31,18.54,17.32,32.43,0,64.87.01,97.3,0,12.46,0,17.55-5.11,17.57-17.59.03-20.46.02-40.92,0-61.38,0-5.53-.1-5.55-5.21-3.45-40.73,16.78-81.49,16.92-122.27.16q-5.87-2.41-5.9,4c-.01,9.15.04,18.3-.03,27.44-.05,6.03-2.97,9.78-7.54,9.93-4.77.15-7.85-3.7-7.99-9.98q-.15-6.76-6.47-6.85c-16.78-.22-25.62-8.95-26-26.05-.23-10.14-.16-20.29,0-30.44.06-3.73-1.07-6.52-3.55-9.39-22.8-26.29-36.27-56.55-38.94-91.5-3.46-45.25,10.48-84.49,40.16-118.42,1.8-2.06,2.36-4.06,2.37-6.72.03-12.13-.81-24.3.41-36.4,1.28-12.79,9.99-20.74,22.79-21.39,1-.05,2.01-.15,2.99-.02,4.68.59,6.44-1.19,6.34-6.1-.28-14.3.45-28.63-.25-42.9-.76-15.61,11.4-30.22,29.12-29.4,17.76.82,35.59.18,53.38.18Zm-141.91,248.4c0,79.03,62.96,141.73,141.86,142.2,72.9.43,142.03-58.14,142.13-142.15.1-81.17-65.84-142.3-142.08-142.18-78.83.13-141.91,63.17-141.92,142.13Zm43.09-137.49c0,1.82-.1,3.65.03,5.46.17,2.43-1.19,6.01.72,7.01,2.38,1.24,4.19-2.41,6.52-3.44,7.9-3.48,10.19-9.43,9.36-17.85-.79-8.08-.17-8.14-8.51-7.83-5.96.23-7.96,2.22-8.1,8.2-.07,2.81-.01,5.63-.02,8.44Zm16.46,280.89c-.79-3.13,1.79-7.51-2.62-10.39-3.6-2.35-7.07-4.89-10.5-7.47-2.68-2.02-3.37-.95-3.35,1.84.04,6.45-.08,12.9.07,19.34.12,5.03,2.29,7.03,7.39,7.32q9,.52,9-8.63c0-.5,0-.99,0-2.01ZM340.36,121.02c0-2.82.06-5.64-.01-8.46-.17-6.88-2.32-8.26-10.37-8.58-6.67-.26-5.49,4.07-5.54,7.93-.03,2.82.02,5.64.02,8.46,0,1.92.48,3.59,2.15,4.77,3.67,2.57,7.32,5.16,10.98,7.74,1.81,1.27,2.75.8,2.76-1.41.02-3.48,0-6.97.02-10.45Zm-.09,274.44s.06,0,.09,0c0-3.48,0-6.97,0-10.45,0-2.1-.74-2.75-2.71-1.5-8.04,5.15-16.19,10.18-13.25,21.96.27,1.1,0,2.32.14,3.47.1.79.25,1.94.78,2.25,3.38,2.02,7.08,1.28,10.59.6,2.64-.51,4.27-2.56,4.34-5.39.09-3.65.02-7.3.02-10.94Zm59.27-139.76h.05c0,1.33.16,2.67-.03,3.97-.74,5.07,1.78,6.24,6.33,6,3.72-.19,5.55-1.5,5.42-5.33-.11-3.14-.08-6.29,0-9.44.08-3.51-1.46-5.06-5.04-5.17-6.25-.18-6.81.22-6.72,6.49.02,1.16,0,2.32,0,3.48Z"/>
      <path class="cls-2" d="m128.73,258.69c.06,57.89,42.9,105.85,100.39,112.39,61.56,7,117.95-37.71,125.16-99.13,3.08-26.23-2.26-50.56-15.93-73.11-.69-1.14-1.4-2.26-2.08-3.4-2.98-5-2.43-9.37,1.49-11.8,3.93-2.44,8.52-1.25,11.54,3.34,10.35,15.78,17.36,32.93,20.15,51.64,10.31,69.16-35.63,133.7-104.3,146.69-72.16,13.65-142.23-37.54-151.56-110.71-8.91-69.85,40.14-134.19,110.05-144.04,36.83-5.19,69.82,4.32,99.05,27.16,1.44,1.12,2.83,2.34,4.07,3.67,3.27,3.5,3.46,7.49.65,10.78-2.72,3.18-6.98,3.73-10.72.8-6.55-5.14-13.12-10.16-20.42-14.24-53.12-29.66-122.8-10.18-152.74,42.79-10.75,19.02-14.81,34.72-14.79,57.17Z"/>
      <path class="cls-2" d="m241.43,284.94c-16.92-.06-29.66-15.58-26.04-32.05.75-3.4.25-5.46-2.59-7.59-7.71-5.79-15.22-11.85-22.73-17.89-4.95-3.98-5.36-9.03-1.13-12.7,3.72-3.23,7.34-2.28,10.83.47,7.58,5.96,15.23,11.83,22.69,17.95,2.53,2.08,4.56,2.33,7.6.95,9.69-4.42,19.18-3.75,27.75,2.78,2.74,2.09,4.77,1.97,7.59.52,14.94-7.66,29.96-15.16,44.96-22.71,2.23-1.12,4.47-2.41,7.09-1.87,3.42.7,5.69,2.89,6.43,6.23.87,3.95-1.12,6.84-4.46,8.63-5.57,2.98-11.26,5.72-16.9,8.57-9.64,4.88-19.23,9.88-28.96,14.58-3.37,1.63-4.93,3.53-4.97,7.54-.15,15.21-12.05,26.64-27.17,26.58Zm-10.71-26.9c-.08,6.35,4.48,11.19,10.68,11.35,6.17.16,11.69-5.11,11.69-11.17,0-5.73-5.36-11.04-11.28-11.15-6.14-.12-11.02,4.71-11.09,10.97Z"/>
    </g>
    <rect class="cls-1" width="511.37" height="511.37"/>
  </g>
</svg>