{
	"asset":{
		"generator":"Khronos glTF Blender I/O v3.6.28",
		"version":"2.0"
	},
	"scene":0,
	"scenes":[
		{
			"name":"Scene",
			"nodes":[
				0
			]
		}
	],
	"nodes":[
		{
			"mesh":0,
			"name":"Lens.003"
		}
	],
	"materials":[
		{
			"doubleSided":true,
			"name":"cat_eye",
			"pbrMetallicRoughness":{
				"baseColorTexture":{
					"index":0
				},
				"metallicFactor":0,
				"metallicRoughnessTexture":{
					"index":1
				}
			}
		},
		{
			"alphaCutoff":0.5,
			"alphaMode":"MASK",
			"doubleSided":true,
			"name":"logo",
			"pbrMetallicRoughness":{
				"baseColorTexture":{
					"index":2
				},
				"metallicFactor":0,
				"metallicRoughnessTexture":{
					"index":3
				}
			}
		},
		{
			"alphaMode":"BLEND",
			"name":"Sticks",
			"pbrMetallicRoughness":{
				"baseColorTexture":{
					"index":4
				},
				"metallicFactor":0,
				"metallicRoughnessTexture":{
					"index":5
				}
			}
		},
		{
			"alphaMode":"BLEND",
			"doubleSided":true,
			"name":"glass",
			"pbrMetallicRoughness":{
				"baseColorTexture":{
					"index":6
				},
				"metallicFactor":0,
				"metallicRoughnessTexture":{
					"index":7
				}
			}
		}
	],
	"meshes":[
		{
			"name":"Plane.004",
			"primitives":[
				{
					"attributes":{
						"POSITION":0,
						"NORMAL":1,
						"TEXCOORD_0":2
					},
					"indices":3,
					"material":0
				},
				{
					"attributes":{
						"POSITION":4,
						"NORMAL":5,
						"TEXCOORD_0":6
					},
					"indices":7,
					"material":1
				},
				{
					"attributes":{
						"POSITION":8,
						"NORMAL":9,
						"TEXCOORD_0":10
					},
					"indices":11,
					"material":2
				},
				{
					"attributes":{
						"POSITION":12,
						"NORMAL":13,
						"TEXCOORD_0":14
					},
					"indices":15,
					"material":3
				}
			]
		}
	],
	"textures":[
		{
			"sampler":0,
			"source":0
		},
		{
			"sampler":0,
			"source":1
		},
		{
			"sampler":0,
			"source":0
		},
		{
			"sampler":0,
			"source":1
		},
		{
			"sampler":0,
			"source":0
		},
		{
			"sampler":0,
			"source":1
		},
		{
			"sampler":0,
			"source":0
		},
		{
			"sampler":0,
			"source":1
		}
	],
	"images":[
		{
			"bufferView":4,
			"mimeType":"image/png",
			"name":"Cat eye Grey_D"
		},
		{
			"bufferView":5,
			"mimeType":"image/png",
			"name":"Cat eye Grey_R"
		}
	],
	"accessors":[
		{
			"bufferView":0,
			"componentType":5126,
			"count":3479,
			"max":[
				3.0920069217681885,
				0.8180099725723267,
				0.19501729309558868
			],
			"min":[
				-3.0920071601867676,
				-1.1528390645980835,
				-1.5423693656921387
			],
			"type":"VEC3"
		},
		{
			"bufferView":1,
			"componentType":5126,
			"count":3479,
			"type":"VEC3"
		},
		{
			"bufferView":2,
			"componentType":5126,
			"count":3479,
			"type":"VEC2"
		},
		{
			"bufferView":3,
			"componentType":5123,
			"count":16776,
			"type":"SCALAR"
		},
		{
			"bufferView":6,
			"componentType":5126,
			"count":50,
			"max":[
				2.5684211254119873,
				0.4261534810066223,
				-0.14775435626506805
			],
			"min":[
				2.278815269470215,
				0.20492300391197205,
				-0.1991596519947052
			],
			"type":"VEC3"
		},
		{
			"bufferView":7,
			"componentType":5126,
			"count":50,
			"type":"VEC3"
		},
		{
			"bufferView":8,
			"componentType":5126,
			"count":50,
			"type":"VEC2"
		},
		{
			"bufferView":9,
			"componentType":5123,
			"count":126,
			"type":"SCALAR"
		},
		{
			"bufferView":10,
			"componentType":5126,
			"count":1704,
			"max":[
				3.0898072719573975,
				0.6714023351669312,
				-0.40474891662597656
			],
			"min":[
				-3.0898072719573975,
				0.16167114675045013,
				-4.582773685455322
			],
			"type":"VEC3"
		},
		{
			"bufferView":11,
			"componentType":5126,
			"count":1704,
			"type":"VEC3"
		},
		{
			"bufferView":12,
			"componentType":5126,
			"count":1704,
			"type":"VEC2"
		},
		{
			"bufferView":13,
			"componentType":5123,
			"count":9648,
			"type":"SCALAR"
		},
		{
			"bufferView":14,
			"componentType":5126,
			"count":485,
			"max":[
				2.755337715148926,
				0.6669610738754272,
				0.06290722638368607
			],
			"min":[
				-2.755337715148926,
				-1.1184922456741333,
				-0.24724160134792328
			],
			"type":"VEC3"
		},
		{
			"bufferView":15,
			"componentType":5126,
			"count":485,
			"type":"VEC3"
		},
		{
			"bufferView":16,
			"componentType":5126,
			"count":485,
			"type":"VEC2"
		},
		{
			"bufferView":17,
			"componentType":5123,
			"count":1524,
			"type":"SCALAR"
		}
	],
	"bufferViews":[
		{
			"buffer":0,
			"byteLength":41748,
			"byteOffset":0,
			"target":34962
		},
		{
			"buffer":0,
			"byteLength":41748,
			"byteOffset":41748,
			"target":34962
		},
		{
			"buffer":0,
			"byteLength":27832,
			"byteOffset":83496,
			"target":34962
		},
		{
			"buffer":0,
			"byteLength":33552,
			"byteOffset":111328,
			"target":34963
		},
		{
			"buffer":0,
			"byteLength":14665,
			"byteOffset":144880
		},
		{
			"buffer":0,
			"byteLength":29477,
			"byteOffset":159548
		},
		{
			"buffer":0,
			"byteLength":600,
			"byteOffset":189028,
			"target":34962
		},
		{
			"buffer":0,
			"byteLength":600,
			"byteOffset":189628,
			"target":34962
		},
		{
			"buffer":0,
			"byteLength":400,
			"byteOffset":190228,
			"target":34962
		},
		{
			"buffer":0,
			"byteLength":252,
			"byteOffset":190628,
			"target":34963
		},
		{
			"buffer":0,
			"byteLength":20448,
			"byteOffset":190880,
			"target":34962
		},
		{
			"buffer":0,
			"byteLength":20448,
			"byteOffset":211328,
			"target":34962
		},
		{
			"buffer":0,
			"byteLength":13632,
			"byteOffset":231776,
			"target":34962
		},
		{
			"buffer":0,
			"byteLength":19296,
			"byteOffset":245408,
			"target":34963
		},
		{
			"buffer":0,
			"byteLength":5820,
			"byteOffset":264704,
			"target":34962
		},
		{
			"buffer":0,
			"byteLength":5820,
			"byteOffset":270524,
			"target":34962
		},
		{
			"buffer":0,
			"byteLength":3880,
			"byteOffset":276344,
			"target":34962
		},
		{
			"buffer":0,
			"byteLength":3048,
			"byteOffset":280224,
			"target":34963
		}
	],
	"samplers":[
		{
			"magFilter":9729,
			"minFilter":9987
		}
	],
	"buffers":[
		{
			"byteLength":283272,
			"uri":"data:application/octet-stream;base64,"
		}
	]
}
