{
    "asset" : {
        "generator" : "Khronos glTF Blender I/O v3.4.50",
        "version" : "2.0"
    },
    "extensionsUsed" : [
        "KHR_materials_specular",
        "KHR_materials_ior"
    ],
    "scene" : 0,
    "scenes" : [
        {
            "name" : "Scene",
            "nodes" : [
                0
            ]
        }
    ],
    "nodes" : [
        {
            "mesh" : 0,
            "name" : "05",
            "translation" : [
                -0.001964742783457041,
                -0.002768832491710782,
                0.023855775594711304
            ]
        }
    ],
    "materials" : [
        {
            "doubleSided" : true,
            "extensions" : {
                "KHR_materials_specular" : {
                    "specularColorFactor" : [
                        1.832412650670561,
                        1.832412650670561,
                        1.832412650670561
                    ]
                },
                "KHR_materials_ior" : {
                    "ior" : 1.4500000476837158
                }
            },
            "name" : "gold.003",
            "pbrMetallicRoughness" : {
                "baseColorFactor" : [
                    1,
                    0.5876744985580444,
                    0.13511261343955994,
                    1
                ],
                "roughnessFactor" : 0.072727270424366
            }
        }
    ],
    "meshes" : [
        {
            "name" : "Object_1.007",
            "primitives" : [
                {
                    "attributes" : {
                        "POSITION" : 0,
                        "NORMAL" : 1
                    },
                    "indices" : 2,
                    "material" : 0
                }
            ]
        }
    ],
    "accessors" : [
        {
            "bufferView" : 0,
            "componentType" : 5126,
            "count" : 13165,
            "max" : [
                0.03627495467662811,
                0.03854991868138313,
                0.013921622186899185
            ],
            "min" : [
                -0.03497743606567383,
                -0.032095298171043396,
                -0.05629107356071472
            ],
            "type" : "VEC3"
        },
        {
            "bufferView" : 1,
            "componentType" : 5126,
            "count" : 13165,
            "type" : "VEC3"
        },
        {
            "bufferView" : 2,
            "componentType" : 5123,
            "count" : 79038,
            "type" : "SCALAR"
        }
    ],
    "bufferViews" : [
        {
            "buffer" : 0,
            "byteLength" : 157980,
            "byteOffset" : 0,
            "target" : 34962
        },
        {
            "buffer" : 0,
            "byteLength" : 157980,
            "byteOffset" : 157980,
            "target" : 34962
        },
        {
            "buffer" : 0,
            "byteLength" : 158076,
            "byteOffset" : 315960,
            "target" : 34963
        }
    ],
    "buffers" : [
        {
            "byteLength" : 474036,
            "uri" : "data:application/octet-stream;base64,"
        }
    ]
}
