{
    "asset" : {
        "generator" : "Khronos glTF Blender I/O v3.4.50",
        "version" : "2.0"
    },
    "scene" : 0,
    "scenes" : [
        {
            "name" : "Scene",
            "nodes" : [
                0
            ]
        }
    ],
    "nodes" : [
        {
            "mesh" : 0,
            "name" : "01",
            "translation" : [
                0.038903236389160156,
                0.436135858297348,
                -0.7842037677764893
            ]
        }
    ],
    "materials" : [
        {
            "doubleSided" : true,
            "name" : "Material.004",
            "normalTexture" : {
                "index" : 0
            },
            "pbrMetallicRoughness" : {
                "baseColorTexture" : {
                    "index" : 1
                },
                "metallicFactor" : 0,
                "roughnessFactor" : 0.7272727489471436
            }
        }
    ],
    "meshes" : [
        {
            "name" : "Object_7.004",
            "primitives" : [
                {
                    "attributes" : {
                        "POSITION" : 0,
                        "TEXCOORD_0" : 1,
                        "TEXCOORD_1" : 2,
                        "TEXCOORD_2" : 3,
                        "TEXCOORD_3" : 4,
                        "TEXCOORD_4" : 5,
                        "NORMAL" : 6
                    },
                    "indices" : 7,
                    "material" : 0
                }
            ]
        }
    ],
    "textures" : [
        {
            "sampler" : 0,
            "source" : 0
        },
        {
            "sampler" : 0,
            "source" : 1
        }
    ],
    "images" : [
        {
            "bufferView" : 8,
            "mimeType" : "image/png",
            "name" : "Image_5"
        },
        {
            "bufferView" : 9,
            "mimeType" : "image/png",
            "name" : "Image_3"
        }
    ],
    "accessors" : [
        {
            "bufferView" : 0,
            "componentType" : 5126,
            "count" : 16452,
            "max" : [
                1.6459975242614746,
                1.3285895586013794,
                2.04921293258667
            ],
            "min" : [
                -1.6805636882781982,
                -0.3158637285232544,
                -2.0370895862579346
            ],
            "type" : "VEC3"
        },
        {
            "bufferView" : 1,
            "componentType" : 5126,
            "count" : 16452,
            "type" : "VEC2"
        },
        {
            "bufferView" : 2,
            "componentType" : 5126,
            "count" : 16452,
            "type" : "VEC2"
        },
        {
            "bufferView" : 3,
            "componentType" : 5126,
            "count" : 16452,
            "type" : "VEC2"
        },
        {
            "bufferView" : 4,
            "componentType" : 5126,
            "count" : 16452,
            "type" : "VEC2"
        },
        {
            "bufferView" : 5,
            "componentType" : 5126,
            "count" : 16452,
            "type" : "VEC2"
        },
        {
            "bufferView" : 6,
            "componentType" : 5126,
            "count" : 16452,
            "type" : "VEC3"
        },
        {
            "bufferView" : 7,
            "componentType" : 5123,
            "count" : 81840,
            "type" : "SCALAR"
        }
    ],
    "bufferViews" : [
        {
            "buffer" : 0,
            "byteLength" : 197424,
            "byteOffset" : 0,
            "target" : 34962
        },
        {
            "buffer" : 0,
            "byteLength" : 131616,
            "byteOffset" : 197424,
            "target" : 34962
        },
        {
            "buffer" : 0,
            "byteLength" : 131616,
            "byteOffset" : 329040,
            "target" : 34962
        },
        {
            "buffer" : 0,
            "byteLength" : 131616,
            "byteOffset" : 460656,
            "target" : 34962
        },
        {
            "buffer" : 0,
            "byteLength" : 131616,
            "byteOffset" : 592272,
            "target" : 34962
        },
        {
            "buffer" : 0,
            "byteLength" : 131616,
            "byteOffset" : 723888,
            "target" : 34962
        },
        {
            "buffer" : 0,
            "byteLength" : 197424,
            "byteOffset" : 855504,
            "target" : 34962
        },
        {
            "buffer" : 0,
            "byteLength" : 163680,
            "byteOffset" : 1052928,
            "target" : 34963
        },
        {
            "buffer" : 0,
            "byteLength" : 416917,
            "byteOffset" : 1216608
        },
        {
            "buffer" : 0,
            "byteLength" : 294830,
            "byteOffset" : 1633528
        }
    ],
    "samplers" : [
        {
            "magFilter" : 9729,
            "minFilter" : 9987
        }
    ],
    "buffers" : [
        {
            "byteLength" : 1928360,
            "uri" : "data:application/octet-stream;base64,"
        }
    ]
}
